<svg width="222" height="292" viewBox="0 0 222 292" fill="none" xmlns="http://www.w3.org/2000/svg">
<g filter="url(#filter0_dd_493_591)">
<mask id="mask0_493_591" style="mask-type:alpha" maskUnits="userSpaceOnUse" x="11" y="7" width="200" height="270">
<path d="M11 24C11 14.6112 18.6112 7 28 7H201C206.523 7 211 11.4772 211 17V267C211 272.523 206.523 277 201 277H28C18.6112 277 11 269.389 11 260V24Z" fill="#985855"/>
</mask>
<g mask="url(#mask0_493_591)">
<g filter="url(#filter1_dd_493_591)">
<path d="M11 24C11 14.6112 18.6112 7 28 7H201C206.523 7 211 11.4772 211 17V267C211 272.523 206.523 277 201 277H28C18.6112 277 11 269.389 11 260V24Z" fill="#9D605D"/>
</g>
<path d="M27 7H201C206.523 7 211 11.4772 211 17V267C211 272.523 206.523 277 201 277H44C34.6112 277 27 269.389 27 260V7Z" fill="#B37C79"/>
</g>
<mask id="path-4-inside-1_493_591" fill="white">
<path d="M11 260C11 250.611 18.6112 243 28 243H211V267C211 272.523 206.523 277 201 277H28C18.6112 277 11 269.389 11 260Z"/>
</mask>
<path d="M11 260C11 250.611 18.6112 243 28 243H211V267C211 272.523 206.523 277 201 277H28C18.6112 277 11 269.389 11 260Z" fill="#EDE9D8"/>
<path d="M-1 260C-1 243.984 11.9837 231 28 231H211V255H28C25.2386 255 23 257.239 23 260H-1ZM211 267C211 279.15 201.15 289 189 289H28C11.9837 289 -1 276.016 -1 260H23C23 262.761 25.2386 265 28 265H201C206.523 265 211 265 211 265V267ZM28 289C11.9837 289 -1 276.016 -1 260C-1 243.984 11.9837 231 28 231V255C25.2386 255 23 257.239 23 260C23 262.761 25.2386 265 28 265V289ZM211 243V277V243Z" fill="#854947" mask="url(#path-4-inside-1_493_591)"/>
</g>
<defs>
<filter id="filter0_dd_493_591" x="0" y="0" width="222" height="292" filterUnits="userSpaceOnUse" color-interpolation-filters="sRGB">
<feFlood flood-opacity="0" result="BackgroundImageFix"/>
<feColorMatrix in="SourceAlpha" type="matrix" values="0 0 0 0 0 0 0 0 0 0 0 0 0 0 0 0 0 0 127 0" result="hardAlpha"/>
<feOffset dy="1"/>
<feGaussianBlur stdDeviation="1.5"/>
<feColorMatrix type="matrix" values="0 0 0 0 0.45098 0 0 0 0 0.454902 0 0 0 0 0.435294 0 0 0 0.3 0"/>
<feBlend mode="normal" in2="BackgroundImageFix" result="effect1_dropShadow_493_591"/>
<feColorMatrix in="SourceAlpha" type="matrix" values="0 0 0 0 0 0 0 0 0 0 0 0 0 0 0 0 0 0 127 0" result="hardAlpha"/>
<feMorphology radius="3" operator="dilate" in="SourceAlpha" result="effect2_dropShadow_493_591"/>
<feOffset dy="4"/>
<feGaussianBlur stdDeviation="4"/>
<feColorMatrix type="matrix" values="0 0 0 0 0.45098 0 0 0 0 0.454902 0 0 0 0 0.435294 0 0 0 0.15 0"/>
<feBlend mode="normal" in2="effect1_dropShadow_493_591" result="effect2_dropShadow_493_591"/>
<feBlend mode="normal" in="SourceGraphic" in2="effect2_dropShadow_493_591" result="shape"/>
</filter>
<filter id="filter1_dd_493_591" x="0" y="0" width="222" height="292" filterUnits="userSpaceOnUse" color-interpolation-filters="sRGB">
<feFlood flood-opacity="0" result="BackgroundImageFix"/>
<feColorMatrix in="SourceAlpha" type="matrix" values="0 0 0 0 0 0 0 0 0 0 0 0 0 0 0 0 0 0 127 0" result="hardAlpha"/>
<feOffset dy="1"/>
<feGaussianBlur stdDeviation="1.5"/>
<feColorMatrix type="matrix" values="0 0 0 0 0.45098 0 0 0 0 0.454902 0 0 0 0 0.435294 0 0 0 0.3 0"/>
<feBlend mode="normal" in2="BackgroundImageFix" result="effect1_dropShadow_493_591"/>
<feColorMatrix in="SourceAlpha" type="matrix" values="0 0 0 0 0 0 0 0 0 0 0 0 0 0 0 0 0 0 127 0" result="hardAlpha"/>
<feMorphology radius="3" operator="dilate" in="SourceAlpha" result="effect2_dropShadow_493_591"/>
<feOffset dy="4"/>
<feGaussianBlur stdDeviation="4"/>
<feColorMatrix type="matrix" values="0 0 0 0 0.45098 0 0 0 0 0.454902 0 0 0 0 0.435294 0 0 0 0.15 0"/>
<feBlend mode="normal" in2="effect1_dropShadow_493_591" result="effect2_dropShadow_493_591"/>
<feBlend mode="normal" in="SourceGraphic" in2="effect2_dropShadow_493_591" result="shape"/>
</filter>
</defs>
</svg>
