<svg width="222" height="292" viewBox="0 0 222 292" fill="none" xmlns="http://www.w3.org/2000/svg">
<g filter="url(#filter0_dd_942_35)">
<path d="M11 17C11 11.4771 15.4772 7 21 7H201C206.523 7 211 11.4772 211 17V267C211 272.523 206.523 277 201 277H21C15.4772 277 11 272.523 11 267V17Z" fill="#F9F9F1"/>
</g>
<path d="M107 79L107 45" stroke="#4F4A36" stroke-linecap="round"/>
<path d="M130.104 48.1016H131.074V55.2246C131.074 57.1523 129.967 58.1367 128.367 58.1367C126.809 58.1367 125.66 57.2207 125.66 55.7988H126.617C126.617 56.6738 127.355 57.2617 128.367 57.2617C129.406 57.2617 130.104 56.6191 130.104 55.2246V48.1016ZM132.893 55.9219C132.893 54.418 134.109 53.8438 135.627 53.7207C136.119 53.6865 137.322 53.6182 137.678 53.5977V52.9004C137.678 51.9023 137.035 51.3008 135.873 51.3008C134.902 51.3008 134.246 51.752 134.068 52.4219H133.098C133.248 51.2461 134.383 50.4668 135.928 50.4668C137.035 50.4668 138.607 50.9453 138.607 52.9824V58H137.678V56.8516H137.623C137.322 57.4941 136.584 58.1641 135.34 58.1641C133.986 58.1641 132.893 57.3574 132.893 55.9219ZM133.822 55.9629C133.822 56.8379 134.52 57.3301 135.477 57.3301C136.844 57.3301 137.678 56.3457 137.678 55.1699V54.377L135.764 54.5137C134.451 54.6094 133.822 55.1152 133.822 55.9629ZM141.561 53.3926V58H140.617V50.5762H141.52V51.752H141.602C141.957 50.9863 142.695 50.4805 143.789 50.4805C145.293 50.4805 146.305 51.4375 146.305 53.2012V58H145.375V53.2695C145.375 52.0664 144.664 51.3281 143.543 51.3281C142.395 51.3281 141.561 52.1074 141.561 53.3926ZM153.018 55.1289V50.5762H153.947V58H153.018V56.7695H152.949C152.607 57.5215 151.842 58.0957 150.748 58.0957C149.326 58.0957 148.301 57.1387 148.301 55.375V50.5762H149.244V55.3066C149.244 56.4414 149.969 57.1934 151.021 57.1934C151.992 57.1934 153.018 56.4824 153.018 55.1289ZM155.588 55.9219C155.588 54.418 156.805 53.8438 158.322 53.7207C158.814 53.6865 160.018 53.6182 160.373 53.5977V52.9004C160.373 51.9023 159.73 51.3008 158.568 51.3008C157.598 51.3008 156.941 51.752 156.764 52.4219H155.793C155.943 51.2461 157.078 50.4668 158.623 50.4668C159.73 50.4668 161.303 50.9453 161.303 52.9824V58H160.373V56.8516H160.318C160.018 57.4941 159.279 58.1641 158.035 58.1641C156.682 58.1641 155.588 57.3574 155.588 55.9219ZM156.518 55.9629C156.518 56.8379 157.215 57.3301 158.172 57.3301C159.539 57.3301 160.373 56.3457 160.373 55.1699V54.377L158.459 54.5137C157.146 54.6094 156.518 55.1152 156.518 55.9629ZM163.312 58V50.5762H164.215V51.7246H164.283C164.584 50.9727 165.377 50.4668 166.293 50.4668C166.443 50.4668 166.662 50.4668 166.771 50.4805V51.4238C166.689 51.4102 166.471 51.3691 166.225 51.3691C165.09 51.3691 164.256 52.1484 164.256 53.2285V58H163.312ZM168.809 60.7891C168.617 60.7891 168.412 60.7754 168.289 60.7617L168.303 59.9277L168.754 59.9414C169.232 59.9414 169.711 59.873 170.107 58.793L170.367 58.0684L167.633 50.5762H168.645L170.805 56.7969H170.873L173.047 50.5762H174.045L170.914 59.1484C170.504 60.2422 169.82 60.7891 168.809 60.7891ZM137.685 75V74.2891L141.034 70.666C142.306 69.2852 142.825 68.5879 142.839 67.6582C142.825 66.5645 141.937 65.8262 140.761 65.8262C139.503 65.8262 138.696 66.6465 138.696 67.8086H137.767C137.767 66.1406 139.052 64.9648 140.788 64.9648C142.511 64.9648 143.741 66.1406 143.741 67.6582C143.741 68.7656 143.235 69.5996 141.526 71.4043L139.065 74.0566V74.125H144.042V75H137.685ZM149.046 75.1367C146.927 75.1367 145.696 73.2637 145.696 70.0508C145.696 66.8516 146.94 64.9648 149.046 64.9648C151.138 64.9648 152.382 66.8516 152.382 70.0508C152.382 73.2637 151.151 75.1367 149.046 75.1367ZM149.046 74.2617C150.55 74.2617 151.438 72.7305 151.438 70.0508C151.438 67.3711 150.536 65.8262 149.046 65.8262C147.542 65.8262 146.653 67.3711 146.653 70.0508C146.653 72.7305 147.542 74.2617 149.046 74.2617ZM154.091 75V74.2891L157.44 70.666C158.712 69.2852 159.231 68.5879 159.245 67.6582C159.231 66.5645 158.343 65.8262 157.167 65.8262C155.909 65.8262 155.103 66.6465 155.103 67.8086H154.173C154.173 66.1406 155.458 64.9648 157.194 64.9648C158.917 64.9648 160.147 66.1406 160.147 67.6582C160.147 68.7656 159.642 69.5996 157.933 71.4043L155.472 74.0566V74.125H160.448V75H154.091ZM161.884 72.8945V72.1016L166.396 65.1016H167.571V72.0332H168.925V72.8945H167.571V75H166.642V72.8945H161.884ZM162.964 72.0332H166.642V66.4004H166.546L162.964 71.9648V72.0332Z" fill="#3A3A3B"/>
<path d="M56.5352 76.3906C49.9727 76.3906 46.1445 71.1172 46.1445 61.8594C46.1445 52.6797 50.0508 47.3281 56.5352 47.3281C63.0195 47.3281 66.9258 52.6797 66.9258 61.8594C66.9258 71.1172 63.0586 76.3906 56.5352 76.3906ZM56.5352 72.6797C60.3633 72.6797 62.6289 68.9297 62.6289 61.8594C62.6289 54.8281 60.3242 50.9609 56.5352 50.9609C52.7461 50.9609 50.4414 54.8281 50.4414 61.8594C50.4414 68.9297 52.707 72.6797 56.5352 72.6797ZM82.1211 47.7188V76H77.7852V52.0156H77.6289L70.8711 56.4297V52.3281L77.9023 47.7188H82.1211Z" fill="#3A3A3B"/>
<defs>
<filter id="filter0_dd_942_35" x="0" y="0" width="222" height="292" filterUnits="userSpaceOnUse" color-interpolation-filters="sRGB">
<feFlood flood-opacity="0" result="BackgroundImageFix"/>
<feColorMatrix in="SourceAlpha" type="matrix" values="0 0 0 0 0 0 0 0 0 0 0 0 0 0 0 0 0 0 127 0" result="hardAlpha"/>
<feOffset dy="1"/>
<feGaussianBlur stdDeviation="1.5"/>
<feColorMatrix type="matrix" values="0 0 0 0 0.45098 0 0 0 0 0.454902 0 0 0 0 0.435294 0 0 0 0.3 0"/>
<feBlend mode="normal" in2="BackgroundImageFix" result="effect1_dropShadow_942_35"/>
<feColorMatrix in="SourceAlpha" type="matrix" values="0 0 0 0 0 0 0 0 0 0 0 0 0 0 0 0 0 0 127 0" result="hardAlpha"/>
<feMorphology radius="3" operator="dilate" in="SourceAlpha" result="effect2_dropShadow_942_35"/>
<feOffset dy="4"/>
<feGaussianBlur stdDeviation="4"/>
<feColorMatrix type="matrix" values="0 0 0 0 0.45098 0 0 0 0 0.454902 0 0 0 0 0.435294 0 0 0 0.15 0"/>
<feBlend mode="normal" in2="effect1_dropShadow_942_35" result="effect2_dropShadow_942_35"/>
<feBlend mode="normal" in="SourceGraphic" in2="effect2_dropShadow_942_35" result="shape"/>
</filter>
</defs>
</svg>
