<svg width="1920" height="520" viewBox="0 0 1920 520" fill="none" xmlns="http://www.w3.org/2000/svg">
<path d="M728.125 258V256.594L732.537 252.146C733.926 250.688 734.629 249.879 734.629 248.771C734.629 247.523 733.609 246.715 732.273 246.715C730.867 246.715 729.953 247.611 729.953 248.965H728.125C728.107 246.645 729.883 245.098 732.309 245.098C734.77 245.098 736.457 246.645 736.475 248.719C736.457 250.143 735.789 251.268 733.398 253.623L730.814 256.242V256.348H736.686V258H728.125ZM743.26 258.176C740.307 258.176 738.584 255.803 738.584 251.637C738.584 247.506 740.342 245.098 743.26 245.098C746.178 245.098 747.936 247.506 747.936 251.637C747.936 255.803 746.195 258.176 743.26 258.176ZM743.26 256.506C744.982 256.506 746.002 254.818 746.002 251.637C746.002 248.473 744.965 246.732 743.26 246.732C741.555 246.732 740.518 248.473 740.518 251.637C740.518 254.818 741.537 256.506 743.26 256.506ZM749.939 258V256.594L754.352 252.146C755.74 250.688 756.443 249.879 756.443 248.771C756.443 247.523 755.424 246.715 754.088 246.715C752.682 246.715 751.768 247.611 751.768 248.965H749.939C749.922 246.645 751.697 245.098 754.123 245.098C756.584 245.098 758.271 246.645 758.289 248.719C758.271 250.143 757.604 251.268 755.213 253.623L752.629 256.242V256.348H758.5V258H749.939ZM760.082 255.521V253.957L765.707 245.273H768.098V253.887H769.838V255.521H768.098V258H766.27V255.521H760.082ZM762.121 253.887H766.27V247.576H766.129L762.121 253.781V253.887ZM784.375 243.762V255.398H782.705V250.037H778.381V248.701H782.705V247.049H778.381V245.713H782.705V243.762H784.375ZM784.779 257.807V259.16H774.109V254.379H775.797V257.807H784.779ZM773.828 244.852V251.742C775.92 251.742 777.906 251.61 780.156 251.197L780.332 252.568C777.836 253.043 775.709 253.131 773.389 253.148H772.176V244.852H773.828ZM796.258 258.176C793.621 258.176 791.74 256.752 791.67 254.678H793.639C793.709 255.803 794.816 256.506 796.24 256.506C797.77 256.506 798.895 255.662 798.895 254.432C798.895 253.184 797.84 252.27 796.029 252.27H794.939V250.688H796.029C797.471 250.688 798.49 249.879 798.49 248.666C798.49 247.506 797.629 246.715 796.275 246.715C794.992 246.715 793.867 247.418 793.814 248.578H791.951C792.004 246.504 793.92 245.098 796.293 245.098C798.789 245.098 800.371 246.68 800.354 248.561C800.371 250.002 799.475 251.057 798.104 251.391V251.479C799.844 251.725 800.846 252.885 800.846 254.502C800.846 256.629 798.895 258.176 796.258 258.176ZM815.523 243.762V252.99H813.854V252.234H810.777V251.18H813.854V243.762H815.523ZM802.393 249.562C805.434 249.58 809.301 249.545 812.693 249.176L812.781 250.248C811.296 250.45 809.758 250.573 808.246 250.652V253.025H806.594V250.723C805.17 250.758 803.816 250.767 802.586 250.758L802.393 249.562ZM815.523 253.518V256.91H806.453V258.123H815.998V259.336H804.818V255.803H813.871V254.678H804.748V253.518H815.523ZM807.508 244.025C809.846 244.025 811.428 244.957 811.445 246.398C811.428 247.875 809.846 248.754 807.508 248.754C805.117 248.754 803.553 247.875 803.57 246.398C803.553 244.957 805.117 244.025 807.508 244.025ZM807.508 245.15C806.049 245.15 805.135 245.643 805.135 246.398C805.135 247.154 806.049 247.629 807.508 247.629C808.932 247.629 809.863 247.154 809.863 246.398C809.863 245.643 808.932 245.15 807.508 245.15ZM822.924 258V256.594L827.336 252.146C828.725 250.688 829.428 249.879 829.428 248.771C829.428 247.523 828.408 246.715 827.072 246.715C825.666 246.715 824.752 247.611 824.752 248.965H822.924C822.906 246.645 824.682 245.098 827.107 245.098C829.568 245.098 831.256 246.645 831.273 248.719C831.256 250.143 830.588 251.268 828.197 253.623L825.613 256.242V256.348H831.484V258H822.924ZM838.006 245.098C840.344 245.115 842.805 246.521 842.805 251.18C842.805 255.645 840.889 258.176 837.83 258.176C835.492 258.176 833.84 256.734 833.541 254.66H835.457C835.721 255.732 836.547 256.488 837.83 256.488C839.799 256.488 840.941 254.766 840.959 251.865H840.801C840.115 252.938 838.92 253.588 837.549 253.588C835.264 253.588 833.436 251.848 833.436 249.404C833.436 246.979 835.246 245.08 838.006 245.098ZM838.006 246.715C836.459 246.715 835.316 247.91 835.316 249.369C835.316 250.846 836.424 252.006 837.971 252.006C839.5 252.006 840.695 250.758 840.695 249.352C840.695 247.98 839.57 246.715 838.006 246.715ZM848.764 244.271C851.137 244.289 852.877 245.748 852.895 247.805C852.877 249.879 851.137 251.32 848.764 251.32C846.373 251.32 844.615 249.879 844.615 247.805C844.615 245.748 846.373 244.289 848.764 244.271ZM848.764 245.678C847.305 245.66 846.232 246.521 846.25 247.805C846.232 249.105 847.305 249.967 848.764 249.967C850.205 249.967 851.277 249.105 851.277 247.805C851.277 246.521 850.205 245.66 848.764 245.678ZM857.359 243.744V251.76H855.689V243.744H857.359ZM857.359 252.48V256.453H848.676V257.965H857.887V259.301H847.059V255.205H855.707V253.816H847.006V252.48H857.359ZM877.891 245.959V247.312H864.936V245.959H870.596V243.973H872.248V245.959H877.891ZM878.664 256.365V257.719H864.25V256.365H870.596V254.273C867.836 254.106 866.166 253.017 866.166 251.268C866.166 249.369 868.17 248.262 871.422 248.262C874.639 248.262 876.66 249.369 876.66 251.268C876.66 253.017 874.981 254.106 872.248 254.273V256.365H878.664ZM871.422 249.58C869.172 249.58 867.854 250.178 867.871 251.268C867.854 252.357 869.172 252.955 871.422 252.973C873.637 252.955 874.955 252.357 874.955 251.268C874.955 250.178 873.637 249.58 871.422 249.58Z" fill="#3A3A3B" fill-opacity="0.5"/>
<path d="M656.889 284.365V285.314H642.686V284.365H646.307V280.059C644.944 279.373 644.127 278.257 644.127 276.859C644.127 274.469 646.447 272.922 649.734 272.904C653.039 272.922 655.359 274.469 655.359 276.859C655.359 278.239 654.56 279.347 653.232 280.023V284.365H656.889ZM649.734 273.836C647.098 273.818 645.182 275.049 645.182 276.859C645.182 278.635 647.098 279.883 649.734 279.865C652.371 279.883 654.305 278.635 654.305 276.859C654.305 275.049 652.371 273.818 649.734 273.836ZM647.396 284.365H652.125V280.445C651.413 280.656 650.604 280.762 649.734 280.762C648.882 280.762 648.091 280.656 647.396 280.463V284.365ZM665.994 273.59C665.994 275.559 668.947 276.965 671.531 277.264L671.109 278.143C668.71 277.826 666.152 276.684 665.309 274.873C664.465 276.692 661.916 277.826 659.525 278.143L659.104 277.264C661.635 276.965 664.623 275.576 664.623 273.59V273.484H659.543V272.57H671.109V273.484H665.994V273.59ZM670.617 281.975V287.143H660V281.975H670.617ZM661.09 282.871V286.229H669.545V282.871H661.09ZM672.375 279.215V280.129H658.242V279.215H672.375ZM690.217 271.867V276.033H692.607V276.965H690.217V281.201H689.109V271.867H690.217ZM685.277 281.518C688.424 281.518 690.34 282.59 690.34 284.418C690.34 286.264 688.424 287.318 685.277 287.318C682.113 287.318 680.18 286.264 680.197 284.418C680.18 282.59 682.113 281.518 685.277 281.518ZM685.277 282.449C682.834 282.432 681.27 283.205 681.27 284.418C681.27 285.631 682.834 286.404 685.277 286.404C687.703 286.404 689.285 285.631 689.285 284.418C689.285 283.205 687.703 282.432 685.277 282.449ZM680.074 278.863C683.238 278.863 685.102 278.775 687.281 278.336L687.422 279.268C685.154 279.707 683.273 279.795 680.074 279.795H678.896V273.098H685.77V274.029H679.986V278.863H680.074ZM706.441 271.867V283.258H705.334V271.867H706.441ZM706.951 286.07V287.002H696.545V282.221H697.652V286.07H706.951ZM699.041 274.311C699.023 276.789 700.816 278.951 703.049 279.795L702.451 280.691C700.658 279.962 699.173 278.485 698.496 276.578C697.837 278.6 696.352 280.208 694.559 280.973L693.926 280.094C696.176 279.18 697.916 276.877 697.934 274.311V272.729H699.041V274.311ZM714.334 273.027C716.777 273.027 718.465 274.486 718.482 276.613C718.465 278.758 716.777 280.199 714.334 280.199C711.908 280.199 710.186 278.758 710.186 276.613C710.186 274.486 711.908 273.027 714.334 273.027ZM714.334 274.012C712.559 274.012 711.258 275.102 711.275 276.613C711.258 278.125 712.559 279.232 714.334 279.215C716.109 279.232 717.393 278.125 717.393 276.613C717.393 275.102 716.109 274.012 714.334 274.012ZM721.875 271.867V287.389H720.768V271.867H721.875ZM709.342 282.906C712.242 282.924 716.215 282.906 719.695 282.379L719.783 283.223C716.197 283.891 712.33 283.891 709.518 283.891L709.342 282.906ZM741.088 271.867V278.354H743.76V279.303H741.088V287.371H739.98V271.867H741.088ZM738.328 274.416V275.348H729.064V274.416H733.195V272.025H734.303V274.416H738.328ZM733.775 276.771C735.955 276.771 737.52 278.213 737.52 280.287C737.52 282.361 735.955 283.803 733.775 283.803C731.596 283.803 730.014 282.361 730.031 280.287C730.014 278.213 731.596 276.771 733.775 276.771ZM733.775 277.703C732.229 277.721 731.086 278.811 731.086 280.287C731.086 281.764 732.229 282.854 733.775 282.836C735.322 282.854 736.465 281.764 736.465 280.287C736.465 278.811 735.322 277.721 733.775 277.703ZM757.137 272.535V276.367H747.574V278.6H757.471V279.549H746.467V275.471H756.012V273.449H746.414V272.535H757.137ZM758.877 281.324V282.238H752.32V287.389H751.213V282.238H744.691V281.324H758.877ZM772.781 276.701V277.633H762.234V272.43H763.324V276.701H772.781ZM774.434 279.883V280.797H760.248V279.883H774.434ZM772.869 286.035V286.984H762.164V282.484H763.254V286.035H772.869ZM784.295 273.098C786.413 273.098 787.925 274.952 788.109 277.896H791.854V271.867H792.943V287.389H791.854V278.811H788.127C787.995 281.878 786.466 283.82 784.295 283.82C782.027 283.82 780.445 281.729 780.463 278.459C780.445 275.189 782.027 273.098 784.295 273.098ZM784.295 274.082C782.643 274.082 781.518 275.875 781.518 278.459C781.518 281.061 782.643 282.836 784.295 282.836C785.93 282.836 787.072 281.061 787.072 278.459C787.072 275.875 785.93 274.082 784.295 274.082ZM809.062 286.07V287.002H798.393V282.238H799.5V286.07H809.062ZM808.658 271.867V283.17H807.568V277.123H804.457V276.191H807.568V271.867H808.658ZM800.098 273.186V274.117H797.303V279.619C798.085 279.619 799.148 279.54 800.309 279.268L800.432 280.199C798.92 280.551 797.707 280.551 796.846 280.551H796.213V273.186H800.098ZM805.301 273.186V274.117H802.102V279.637C803.455 279.628 804.606 279.558 805.969 279.25L806.092 280.182C804.545 280.516 803.314 280.551 801.75 280.551H800.994V273.186H805.301ZM827.695 271.867V275.787H830.086V276.719H827.695V280.709H826.588V271.867H827.695ZM823.477 272.904C823.477 276.736 820.682 279.549 816.111 280.797L815.654 279.9C819.574 278.819 822.018 276.64 822.299 273.836H816.322V272.904H823.477ZM827.695 281.465V287.143H817.957V281.465H827.695ZM819.064 282.414V286.211H826.588V282.414H819.064ZM843.955 271.867V281.113H842.848V276.93H839.49V275.998H842.848V271.867H843.955ZM838.857 281.641C842.057 281.641 844.008 282.678 844.008 284.488C844.008 286.299 842.057 287.336 838.857 287.354C835.658 287.336 833.707 286.299 833.725 284.488C833.707 282.678 835.658 281.641 838.857 281.641ZM838.857 282.52C836.379 282.52 834.797 283.275 834.814 284.488C834.797 285.701 836.379 286.439 838.857 286.439C841.336 286.439 842.918 285.701 842.918 284.488C842.918 283.275 841.336 282.52 838.857 282.52ZM836.414 274.785C836.414 276.877 838.119 278.811 840.316 279.566L839.736 280.463C837.987 279.812 836.555 278.468 835.904 276.807C835.236 278.696 833.707 280.199 831.861 280.92L831.281 280.023C833.514 279.197 835.307 277.105 835.307 274.803V273.994H831.668V273.062H840V273.994H836.414V274.785ZM853.781 272.922C857.016 272.939 859.406 274.609 859.406 277.141C859.406 279.672 857.016 281.342 853.781 281.324C850.564 281.342 848.174 279.672 848.174 277.141C848.174 274.609 850.564 272.939 853.781 272.922ZM853.781 273.836C851.18 273.836 849.211 275.207 849.211 277.141C849.211 279.074 851.18 280.41 853.781 280.41C856.383 280.41 858.352 279.074 858.352 277.141C858.352 275.207 856.383 273.836 853.781 273.836ZM860.936 284.295V285.244H846.732V284.295H860.936ZM876.492 284.436V285.385H862.289V284.436H868.793V281.307H864.117V276.666H873.557V273.994H864.064V273.062H874.646V277.598H865.207V280.375H875.016V281.307H869.9V284.436H876.492ZM886.635 276.648C886.635 279.162 888.041 281.764 890.133 282.871L889.465 283.732C887.883 282.845 886.679 281.131 886.125 279.145C885.571 281.245 884.385 283.1 882.803 284.049L882.117 283.205C884.174 282.01 885.562 279.25 885.58 276.648V275.787H882.434V274.855H885.58V272.447H886.652V274.855H889.746V275.787H886.635V276.648ZM895.441 271.867V287.371H894.369V279.197H891.996V286.562H890.941V272.219H891.996V278.23H894.369V271.867H895.441ZM910.436 271.867V287.389H909.311V283.398H905.619V282.52H909.311V271.867H910.436ZM897.674 280.129C900.645 280.129 904.617 280.111 908.045 279.619L908.133 280.463C906.542 280.727 904.89 280.876 903.281 280.973V286.879H902.174V281.025C900.618 281.087 899.133 281.096 897.832 281.096L897.674 280.129ZM902.789 272.676C905.092 272.676 906.691 273.889 906.691 275.682C906.691 277.527 905.092 278.688 902.789 278.688C900.469 278.688 898.887 277.527 898.887 275.682C898.887 273.889 900.469 272.676 902.789 272.676ZM902.789 273.572C901.102 273.572 899.924 274.469 899.924 275.682C899.924 276.947 901.102 277.826 902.789 277.826C904.441 277.826 905.619 276.947 905.637 275.682C905.619 274.469 904.441 273.572 902.789 273.572ZM926.08 271.867V287.371H924.973V280.533H921.58V279.584H924.973V277.211H921.58V276.262H924.973V271.867H926.08ZM918.521 276.701C918.521 279.127 920.561 282.01 922.67 283.082L921.984 283.926C920.297 283.047 918.697 281.061 917.994 278.898C917.3 281.263 915.639 283.354 913.969 284.295L913.213 283.469C915.322 282.396 917.396 279.426 917.414 276.701V274.434H913.775V273.484H922.16V274.434H918.521V276.701ZM938.314 282.414C938.314 283.829 939.132 285.35 940.67 286.176C942.208 285.262 943.061 283.636 943.061 282.414V281.447H944.15V282.414C944.133 284.014 945.416 285.631 947.385 286.316L946.822 287.16C945.258 286.589 944.115 285.464 943.588 284.137C943.122 285.411 942.155 286.659 940.705 287.283C939.185 286.694 938.2 285.517 937.752 284.189C937.207 285.455 936.091 286.58 934.588 287.16L934.008 286.316C935.959 285.596 937.242 283.891 937.242 282.414V281.447H938.314V282.414ZM945.943 271.867V280.762H944.836V271.867H945.943ZM937.611 272.816C939.949 272.816 941.619 274.258 941.619 276.402C941.619 278.529 939.949 279.971 937.611 279.971C935.273 279.971 933.586 278.529 933.604 276.402C933.586 274.258 935.273 272.816 937.611 272.816ZM937.611 273.766C935.906 273.766 934.676 274.873 934.676 276.402C934.676 277.932 935.906 279.039 937.611 279.039C939.316 279.039 940.547 277.932 940.547 276.402C940.547 274.873 939.316 273.766 937.611 273.766ZM963.311 278.16V279.109H960.691V287.371H959.584V271.867H960.691V278.16H963.311ZM950.531 273.396V282.432H950.637C952.975 282.449 955.312 282.273 957.949 281.711L958.09 282.678C955.4 283.223 953.027 283.381 950.637 283.381H949.441V273.396H950.531ZM978.516 284.365V285.314H964.312V284.365H967.934V280.059C966.571 279.373 965.754 278.257 965.754 276.859C965.754 274.469 968.074 272.922 971.361 272.904C974.666 272.922 976.986 274.469 976.986 276.859C976.986 278.239 976.187 279.347 974.859 280.023V284.365H978.516ZM971.361 273.836C968.725 273.818 966.809 275.049 966.809 276.859C966.809 278.635 968.725 279.883 971.361 279.865C973.998 279.883 975.932 278.635 975.932 276.859C975.932 275.049 973.998 273.818 971.361 273.836ZM969.023 284.365H973.752V280.445C973.04 280.656 972.231 280.762 971.361 280.762C970.509 280.762 969.718 280.656 969.023 280.463V284.365ZM982.383 282.062C982.4 280.041 983.051 279.338 984.264 278.547C985.16 277.984 985.67 277.299 985.67 276.332C985.67 275.031 984.65 274.17 983.367 274.17C982.172 274.17 981.1 274.943 981.029 276.455H979.764C979.816 274.398 981.381 273.098 983.367 273.098C985.459 273.098 986.883 274.486 986.883 276.385C986.883 277.668 986.285 278.564 985.125 279.32C984 280.041 983.613 280.674 983.596 282.062V282.361H982.383V282.062ZM983.033 286.088C982.506 286.088 982.084 285.666 982.084 285.156C982.084 284.629 982.506 284.207 983.033 284.207C983.543 284.207 983.965 284.629 983.965 285.156C983.965 285.666 983.543 286.088 983.033 286.088Z" fill="#65744B" fill-opacity="0.7"/>
<path d="M1395.49 237V235.594L1399.91 231.146C1401.3 229.688 1402 228.879 1402 227.771C1402 226.523 1400.98 225.715 1399.64 225.715C1398.24 225.715 1397.32 226.611 1397.32 227.965H1395.49C1395.48 225.645 1397.25 224.098 1399.68 224.098C1402.14 224.098 1403.83 225.645 1403.84 227.719C1403.83 229.143 1403.16 230.268 1400.77 232.623L1398.18 235.242V235.348H1404.06V237H1395.49ZM1410.63 237.176C1407.68 237.176 1405.95 234.803 1405.95 230.637C1405.95 226.506 1407.71 224.098 1410.63 224.098C1413.55 224.098 1415.31 226.506 1415.31 230.637C1415.31 234.803 1413.56 237.176 1410.63 237.176ZM1410.63 235.506C1412.35 235.506 1413.37 233.818 1413.37 230.637C1413.37 227.473 1412.33 225.732 1410.63 225.732C1408.92 225.732 1407.89 227.473 1407.89 230.637C1407.89 233.818 1408.91 235.506 1410.63 235.506ZM1417.31 237V235.594L1421.72 231.146C1423.11 229.688 1423.81 228.879 1423.81 227.771C1423.81 226.523 1422.79 225.715 1421.46 225.715C1420.05 225.715 1419.14 226.611 1419.14 227.965H1417.31C1417.29 225.645 1419.07 224.098 1421.49 224.098C1423.95 224.098 1425.64 225.645 1425.66 227.719C1425.64 229.143 1424.97 230.268 1422.58 232.623L1420 235.242V235.348H1425.87V237H1417.31ZM1427.45 234.521V232.957L1433.08 224.273H1435.47V232.887H1437.21V234.521H1435.47V237H1433.64V234.521H1427.45ZM1429.49 232.887H1433.64V226.576H1433.5L1429.49 232.781V232.887ZM1451.74 222.762V234.398H1450.07V229.037H1445.75V227.701H1450.07V226.049H1445.75V224.713H1450.07V222.762H1451.74ZM1452.15 236.807V238.16H1441.48V233.379H1443.17V236.807H1452.15ZM1441.2 223.852V230.742C1443.29 230.742 1445.28 230.61 1447.53 230.197L1447.7 231.568C1445.21 232.043 1443.08 232.131 1440.76 232.148H1439.55V223.852H1441.2ZM1463.43 237.176C1461.03 237.176 1459.22 235.699 1459.13 233.678H1461.01C1461.11 234.768 1462.15 235.559 1463.43 235.559C1464.98 235.559 1466.09 234.434 1466.09 232.922C1466.09 231.375 1464.95 230.25 1463.35 230.232C1462.33 230.232 1461.55 230.566 1461.11 231.357H1459.29L1460.11 224.273H1467.32V225.926H1461.71L1461.29 229.494H1461.41C1461.94 228.984 1462.84 228.633 1463.8 228.633C1466.19 228.633 1467.97 230.408 1467.97 232.869C1467.97 235.383 1466.09 237.176 1463.43 237.176ZM1482.58 222.762V231.99H1480.91V231.234H1477.83V230.18H1480.91V222.762H1482.58ZM1469.45 228.562C1472.49 228.58 1476.35 228.545 1479.75 228.176L1479.83 229.248C1478.35 229.45 1476.81 229.573 1475.3 229.652V232.025H1473.65V229.723C1472.22 229.758 1470.87 229.767 1469.64 229.758L1469.45 228.562ZM1482.58 232.518V235.91H1473.51V237.123H1483.05V238.336H1471.87V234.803H1480.92V233.678H1471.8V232.518H1482.58ZM1474.56 223.025C1476.9 223.025 1478.48 223.957 1478.5 225.398C1478.48 226.875 1476.9 227.754 1474.56 227.754C1472.17 227.754 1470.61 226.875 1470.62 225.398C1470.61 223.957 1472.17 223.025 1474.56 223.025ZM1474.56 224.15C1473.1 224.15 1472.19 224.643 1472.19 225.398C1472.19 226.154 1473.1 226.629 1474.56 226.629C1475.98 226.629 1476.92 226.154 1476.92 225.398C1476.92 224.643 1475.98 224.15 1474.56 224.15ZM1489.98 237V235.594L1494.39 231.146C1495.78 229.688 1496.48 228.879 1496.48 227.771C1496.48 226.523 1495.46 225.715 1494.13 225.715C1492.72 225.715 1491.81 226.611 1491.81 227.965H1489.98C1489.96 225.645 1491.73 224.098 1494.16 224.098C1496.62 224.098 1498.31 225.645 1498.33 227.719C1498.31 229.143 1497.64 230.268 1495.25 232.623L1492.67 235.242V235.348H1498.54V237H1489.98ZM1505.2 237.176C1502.56 237.176 1500.68 235.752 1500.61 233.678H1502.58C1502.65 234.803 1503.76 235.506 1505.18 235.506C1506.71 235.506 1507.84 234.662 1507.84 233.432C1507.84 232.184 1506.78 231.27 1504.97 231.27H1503.88V229.688H1504.97C1506.41 229.688 1507.43 228.879 1507.43 227.666C1507.43 226.506 1506.57 225.715 1505.22 225.715C1503.93 225.715 1502.81 226.418 1502.76 227.578H1500.89C1500.95 225.504 1502.86 224.098 1505.23 224.098C1507.73 224.098 1509.31 225.68 1509.3 227.561C1509.31 229.002 1508.42 230.057 1507.05 230.391V230.479C1508.79 230.725 1509.79 231.885 1509.79 233.502C1509.79 235.629 1507.84 237.176 1505.2 237.176ZM1515.83 223.271C1518.21 223.289 1519.95 224.748 1519.97 226.805C1519.95 228.879 1518.21 230.32 1515.83 230.32C1513.44 230.32 1511.69 228.879 1511.69 226.805C1511.69 224.748 1513.44 223.289 1515.83 223.271ZM1515.83 224.678C1514.38 224.66 1513.3 225.521 1513.32 226.805C1513.3 228.105 1514.38 228.967 1515.83 228.967C1517.28 228.967 1518.35 228.105 1518.35 226.805C1518.35 225.521 1517.28 224.66 1515.83 224.678ZM1524.43 222.744V230.76H1522.76V222.744H1524.43ZM1524.43 231.48V235.453H1515.75V236.965H1524.96V238.301H1514.13V234.205H1522.78V232.816H1514.08V231.48H1524.43ZM1544.96 224.959V226.312H1532.01V224.959H1537.67V222.973H1539.32V224.959H1544.96ZM1545.73 235.365V236.719H1531.32V235.365H1537.67V233.273C1534.91 233.106 1533.24 232.017 1533.24 230.268C1533.24 228.369 1535.24 227.262 1538.49 227.262C1541.71 227.262 1543.73 228.369 1543.73 230.268C1543.73 232.017 1542.05 233.106 1539.32 233.273V235.365H1545.73ZM1538.49 228.58C1536.24 228.58 1534.92 229.178 1534.94 230.268C1534.92 231.357 1536.24 231.955 1538.49 231.973C1540.71 231.955 1542.03 231.357 1542.03 230.268C1542.03 229.178 1540.71 228.58 1538.49 228.58Z" fill="#3A3A3B" fill-opacity="0.5"/>
<path d="M1321.38 262.953V265.994C1322.94 265.915 1324.53 265.783 1326.04 265.555L1326.12 266.398C1322.54 267.031 1318.67 267.049 1315.86 267.049L1315.68 266.1C1317.03 266.1 1318.61 266.1 1320.27 266.029V262.953H1321.38ZM1321.36 257.908C1321.36 260.07 1323.19 261.775 1325.46 262.443L1324.93 263.34C1323.06 262.742 1321.5 261.503 1320.81 259.824C1320.16 261.591 1318.61 262.892 1316.75 263.498L1316.21 262.637C1318.46 261.934 1320.25 260.158 1320.25 257.908H1316.56V256.959H1320.27V254.973H1321.38V256.959H1325.16V257.908H1321.36ZM1328.21 254.867V270.389H1327.11V254.867H1328.21ZM1343.44 255.816V256.977C1343.44 258.286 1343.44 259.903 1343.02 262.092H1345.35V263.023H1331.15V262.092H1341.91C1342.33 259.877 1342.33 258.286 1342.33 256.977V256.748H1332.98V255.816H1343.44ZM1343.91 269.035V269.984H1333.05V264.904H1334.16V269.035H1343.91ZM1359.94 254.867V270.371H1358.87V254.867H1359.94ZM1356.87 255.219V269.562H1355.79V261.951H1353.56C1353.43 264.957 1352.14 266.855 1350.22 266.855C1348.22 266.855 1346.92 264.781 1346.92 261.547C1346.92 258.295 1348.22 256.238 1350.22 256.238C1352.11 256.238 1353.4 258.066 1353.54 261.002H1355.79V255.219H1356.87ZM1350.22 257.275C1348.85 257.275 1347.96 258.98 1347.97 261.547C1347.96 264.096 1348.85 265.818 1350.22 265.818C1351.61 265.818 1352.51 264.096 1352.51 261.547C1352.51 258.98 1351.61 257.275 1350.22 257.275ZM1378.54 254.867V261.283H1381.16V262.232H1378.54V270.371H1377.43V254.867H1378.54ZM1374.57 256.555C1374.55 260.861 1372.41 264.852 1367.4 267.33L1366.78 266.451C1370.91 264.412 1373.16 261.23 1373.44 257.486H1367.47V256.555H1374.57ZM1387.26 257.855C1387.26 259.965 1388.93 261.793 1391.14 262.549L1390.6 263.41C1388.82 262.804 1387.4 261.529 1386.75 259.895C1386.09 261.74 1384.57 263.164 1382.72 263.85L1382.16 262.953C1384.41 262.18 1386.17 260.193 1386.19 257.873V256.977H1382.53V256.045H1390.86V256.977H1387.26V257.855ZM1394.24 254.867V258.945H1396.63V259.877H1394.24V264.271H1393.13V254.867H1394.24ZM1389.3 264.729C1392.46 264.729 1394.36 265.748 1394.36 267.506C1394.36 269.299 1392.46 270.318 1389.3 270.318C1386.13 270.318 1384.2 269.299 1384.22 267.506C1384.2 265.748 1386.13 264.729 1389.3 264.729ZM1389.3 265.643C1386.86 265.643 1385.29 266.363 1385.31 267.506C1385.29 268.701 1386.86 269.422 1389.3 269.422C1391.74 269.422 1393.29 268.701 1393.29 267.506C1393.29 266.363 1391.74 265.643 1389.3 265.643ZM1414.8 254.867V266.275H1413.7V254.867H1414.8ZM1415.31 269.07V270.002H1404.91V265.098H1406.02V269.07H1415.31ZM1406.47 255.992C1408.78 255.992 1410.48 257.539 1410.48 259.754C1410.48 261.986 1408.78 263.551 1406.47 263.533C1404.17 263.551 1402.45 261.986 1402.46 259.754C1402.45 257.539 1404.17 255.992 1406.47 255.992ZM1406.47 256.959C1404.79 256.959 1403.54 258.154 1403.54 259.754C1403.54 261.371 1404.79 262.549 1406.47 262.549C1408.14 262.549 1409.41 261.371 1409.41 259.754C1409.41 258.154 1408.14 256.959 1406.47 256.959ZM1422.64 257.398C1422.64 259.578 1424.42 261.547 1426.6 262.32L1425.98 263.217C1424.26 262.558 1422.81 261.187 1422.15 259.49C1421.5 261.415 1420.03 262.909 1418.21 263.639L1417.62 262.742C1419.87 261.881 1421.55 259.807 1421.57 257.328V255.658H1422.64V257.398ZM1429.69 254.867V259.033H1432.08V259.982H1429.69V264.377H1428.59V254.867H1429.69ZM1424.75 264.799C1427.92 264.799 1429.82 265.818 1429.82 267.559C1429.82 269.316 1427.92 270.318 1424.75 270.318C1421.57 270.318 1419.66 269.316 1419.67 267.559C1419.66 265.818 1421.57 264.799 1424.75 264.799ZM1424.75 265.713C1422.31 265.713 1420.75 266.416 1420.76 267.559C1420.75 268.719 1422.31 269.422 1424.75 269.439C1427.2 269.422 1428.74 268.719 1428.74 267.559C1428.74 266.416 1427.2 265.713 1424.75 265.713ZM1441.42 255.939C1441.42 259.807 1438.43 262.496 1433.91 263.656L1433.46 262.742C1437.43 261.775 1439.98 259.648 1440.24 256.871H1434.23V255.939H1441.42ZM1445.9 254.867V263.41H1444.79V254.867H1445.9ZM1446.22 264.324V265.238H1443.93V269.193H1446.39V270.125H1435.69V269.193H1438.1V265.238H1435.83V264.324H1446.22ZM1439.19 269.193H1442.84V265.238H1439.19V269.193ZM1461.95 254.867V270.371H1460.88V254.867H1461.95ZM1458.71 255.307V269.545H1457.64V262.268H1454.11C1453.14 264.078 1451.63 265.695 1449.47 266.979L1448.8 266.17C1452.26 264.113 1454.06 261.116 1454.3 257.82H1449.42V256.871H1455.39C1455.39 258.418 1455.12 259.938 1454.53 261.354H1457.64V255.307H1458.71ZM1482.83 267.383V268.332H1468.63V267.383H1475.13V263.885H1470.35V255.992H1471.48V258.91H1479.95V255.992H1481.04V263.885H1476.24V267.383H1482.83ZM1471.48 262.953H1479.95V259.842H1471.48V262.953ZM1488.56 255.799C1490.9 255.799 1492.55 257.258 1492.57 259.42C1492.55 261.564 1490.9 263.023 1488.56 263.023C1486.22 263.023 1484.54 261.564 1484.54 259.42C1484.54 257.258 1486.22 255.799 1488.56 255.799ZM1488.56 256.766C1486.86 256.748 1485.61 257.891 1485.63 259.42C1485.61 260.967 1486.86 262.092 1488.56 262.092C1490.25 262.092 1491.48 260.967 1491.5 259.42C1491.48 257.891 1490.25 256.748 1488.56 256.766ZM1496.26 254.867V258.734H1498.65V259.666H1496.26V263.762H1495.15V254.867H1496.26ZM1489.16 265.396C1489.16 266.838 1489.98 268.358 1491.52 269.193C1493.07 268.271 1493.91 266.618 1493.91 265.396V264.447H1495V265.396C1494.98 267.014 1496.24 268.648 1498.23 269.334L1497.65 270.178C1496.1 269.598 1494.97 268.473 1494.45 267.137C1493.98 268.42 1493.01 269.686 1491.53 270.318C1490.02 269.703 1489.05 268.517 1488.62 267.172C1488.06 268.464 1486.95 269.598 1485.45 270.178L1484.89 269.334C1486.8 268.613 1488.11 266.891 1488.12 265.396V264.447H1489.16V265.396ZM1501.78 262.9C1504.68 262.9 1506.54 262.812 1508.72 262.373L1508.87 263.322C1506.62 263.727 1504.73 263.85 1501.78 263.85H1500.62V256.221H1507.79V257.17H1501.73V262.9H1501.78ZM1512.52 254.867V266.205H1511.41V260.176H1506.76V259.262H1511.41V254.867H1512.52ZM1512.96 269.193V270.125H1502.64V265.379H1503.75V269.193H1512.96ZM1523.89 255.834C1525.22 255.825 1526.35 256.326 1527.06 257.17H1531.31V254.867H1532.42V264.078H1531.31V261.74H1527.08C1526.36 262.593 1525.23 263.103 1523.89 263.094C1521.57 263.111 1519.89 261.617 1519.9 259.473C1519.89 257.311 1521.57 255.816 1523.89 255.834ZM1523.89 256.783C1522.19 256.783 1520.96 257.926 1520.96 259.473C1520.96 261.002 1522.19 262.145 1523.89 262.127C1525.55 262.145 1526.79 261.002 1526.79 259.473C1526.79 257.926 1525.55 256.783 1523.89 256.783ZM1527.32 264.447C1530.52 264.465 1532.47 265.537 1532.47 267.383C1532.47 269.246 1530.52 270.318 1527.32 270.318C1524.12 270.318 1522.17 269.246 1522.19 267.383C1522.17 265.537 1524.12 264.465 1527.32 264.447ZM1527.32 265.344C1524.84 265.344 1523.26 266.135 1523.26 267.383C1523.26 268.631 1524.84 269.422 1527.32 269.422C1529.8 269.422 1531.4 268.631 1531.4 267.383C1531.4 266.135 1529.8 265.344 1527.32 265.344ZM1527.6 258.102C1527.77 258.515 1527.87 258.98 1527.87 259.473C1527.87 259.956 1527.78 260.404 1527.62 260.809H1531.31V258.102H1527.6ZM1547.1 254.867V261.564H1549.73V262.514H1547.1V270.371H1546.01V254.867H1547.1ZM1535 266.311C1536.31 266.311 1537.84 266.302 1539.43 266.24V264.412C1537.56 264.254 1536.34 263.19 1536.36 261.6C1536.34 259.859 1537.8 258.734 1539.98 258.734C1542.14 258.734 1543.62 259.859 1543.62 261.6C1543.62 263.182 1542.4 264.245 1540.54 264.412V266.205C1542.05 266.126 1543.57 266.003 1544.99 265.801L1545.08 266.662C1541.67 267.242 1537.96 267.277 1535.21 267.277L1535 266.311ZM1544.67 256.801V257.732H1535.27V256.801H1539.43V254.867H1540.54V256.801H1544.67ZM1539.98 259.613C1538.43 259.613 1537.39 260.439 1537.39 261.6C1537.39 262.76 1538.43 263.551 1539.98 263.533C1541.53 263.551 1542.54 262.76 1542.56 261.6C1542.54 260.439 1541.53 259.613 1539.98 259.613ZM1562.69 254.867V261.283H1565.31V262.232H1562.69V270.371H1561.58V254.867H1562.69ZM1558.72 256.555C1558.7 260.861 1556.55 264.852 1551.54 267.33L1550.93 266.451C1555.06 264.412 1557.31 261.23 1557.59 257.486H1551.62V256.555H1558.72ZM1575.77 265.414C1575.77 266.829 1576.58 268.35 1578.12 269.176C1579.66 268.262 1580.51 266.636 1580.51 265.414V264.447H1581.6V265.414C1581.59 267.014 1582.87 268.631 1584.84 269.316L1584.28 270.16C1582.71 269.589 1581.57 268.464 1581.04 267.137C1580.58 268.411 1579.61 269.659 1578.16 270.283C1576.64 269.694 1575.65 268.517 1575.21 267.189C1574.66 268.455 1573.54 269.58 1572.04 270.16L1571.46 269.316C1573.41 268.596 1574.7 266.891 1574.7 265.414V264.447H1575.77V265.414ZM1583.4 254.867V263.762H1582.29V254.867H1583.4ZM1575.06 255.816C1577.4 255.816 1579.07 257.258 1579.07 259.402C1579.07 261.529 1577.4 262.971 1575.06 262.971C1572.73 262.971 1571.04 261.529 1571.06 259.402C1571.04 257.258 1572.73 255.816 1575.06 255.816ZM1575.06 256.766C1573.36 256.766 1572.13 257.873 1572.13 259.402C1572.13 260.932 1573.36 262.039 1575.06 262.039C1576.77 262.039 1578 260.932 1578 259.402C1578 257.873 1576.77 256.766 1575.06 256.766ZM1600.76 261.16V262.109H1598.14V270.371H1597.04V254.867H1598.14V261.16H1600.76ZM1587.98 256.396V265.432H1588.09C1590.43 265.449 1592.77 265.273 1595.4 264.711L1595.54 265.678C1592.85 266.223 1590.48 266.381 1588.09 266.381H1586.89V256.396H1587.98ZM1615.97 267.365V268.314H1601.77V267.365H1605.39V263.059C1604.02 262.373 1603.21 261.257 1603.21 259.859C1603.21 257.469 1605.53 255.922 1608.81 255.904C1612.12 255.922 1614.44 257.469 1614.44 259.859C1614.44 261.239 1613.64 262.347 1612.31 263.023V267.365H1615.97ZM1608.81 256.836C1606.18 256.818 1604.26 258.049 1604.26 259.859C1604.26 261.635 1606.18 262.883 1608.81 262.865C1611.45 262.883 1613.38 261.635 1613.38 259.859C1613.38 258.049 1611.45 256.818 1608.81 256.836ZM1606.48 267.365H1611.21V263.445C1610.49 263.656 1609.68 263.762 1608.81 263.762C1607.96 263.762 1607.17 263.656 1606.48 263.463V267.365ZM1619.84 265.062C1619.85 263.041 1620.5 262.338 1621.72 261.547C1622.61 260.984 1623.12 260.299 1623.12 259.332C1623.12 258.031 1622.1 257.17 1620.82 257.17C1619.62 257.17 1618.55 257.943 1618.48 259.455H1617.22C1617.27 257.398 1618.83 256.098 1620.82 256.098C1622.91 256.098 1624.34 257.486 1624.34 259.385C1624.34 260.668 1623.74 261.564 1622.58 262.32C1621.45 263.041 1621.07 263.674 1621.05 265.062V265.361H1619.84V265.062ZM1620.49 269.088C1619.96 269.088 1619.54 268.666 1619.54 268.156C1619.54 267.629 1619.96 267.207 1620.49 267.207C1621 267.207 1621.42 267.629 1621.42 268.156C1621.42 268.666 1621 269.088 1620.49 269.088Z" fill="#65744B" fill-opacity="0.7"/>
<path d="M1185.12 78V76.5938L1189.54 72.1465C1190.93 70.6875 1191.63 69.8789 1191.63 68.7715C1191.63 67.5234 1190.61 66.7148 1189.27 66.7148C1187.87 66.7148 1186.95 67.6113 1186.95 68.9648H1185.12C1185.11 66.6445 1186.88 65.0977 1189.31 65.0977C1191.77 65.0977 1193.46 66.6445 1193.47 68.7188C1193.46 70.1426 1192.79 71.2676 1190.4 73.623L1187.81 76.2422V76.3477H1193.69V78H1185.12ZM1200.26 78.1758C1197.31 78.1758 1195.58 75.8027 1195.58 71.6367C1195.58 67.5059 1197.34 65.0977 1200.26 65.0977C1203.18 65.0977 1204.94 67.5059 1204.94 71.6367C1204.94 75.8027 1203.2 78.1758 1200.26 78.1758ZM1200.26 76.5059C1201.98 76.5059 1203 74.8184 1203 71.6367C1203 68.4727 1201.96 66.7324 1200.26 66.7324C1198.55 66.7324 1197.52 68.4727 1197.52 71.6367C1197.52 74.8184 1198.54 76.5059 1200.26 76.5059ZM1206.94 78V76.5938L1211.35 72.1465C1212.74 70.6875 1213.44 69.8789 1213.44 68.7715C1213.44 67.5234 1212.42 66.7148 1211.09 66.7148C1209.68 66.7148 1208.77 67.6113 1208.77 68.9648H1206.94C1206.92 66.6445 1208.7 65.0977 1211.12 65.0977C1213.58 65.0977 1215.27 66.6445 1215.29 68.7188C1215.27 70.1426 1214.6 71.2676 1212.21 73.623L1209.63 76.2422V76.3477H1215.5V78H1206.94ZM1217.08 75.5215V73.957L1222.71 65.2734H1225.1V73.8867H1226.84V75.5215H1225.1V78H1223.27V75.5215H1217.08ZM1219.12 73.8867H1223.27V67.5762H1223.13L1219.12 73.7812V73.8867ZM1241.38 63.7617V75.3984H1239.71V70.0371H1235.38V68.7012H1239.71V67.0488H1235.38V65.7129H1239.71V63.7617H1241.38ZM1241.78 77.8066V79.1602H1231.11V74.3789H1232.8V77.8066H1241.78ZM1230.83 64.8516V71.7422C1232.92 71.7422 1234.91 71.6104 1237.16 71.1973L1237.33 72.5684C1234.84 73.043 1232.71 73.1309 1230.39 73.1484H1229.18V64.8516H1230.83ZM1253.35 78.1758C1250.99 78.1582 1248.53 76.7695 1248.53 72.0586C1248.53 67.6289 1250.45 65.0977 1253.5 65.0977C1255.84 65.0977 1257.48 66.5566 1257.78 68.5781H1255.86C1255.61 67.541 1254.79 66.7852 1253.5 66.7852C1251.54 66.7852 1250.39 68.5078 1250.39 71.373H1250.53C1251.22 70.3008 1252.41 69.6504 1253.8 69.6504C1256.07 69.6504 1257.9 71.3906 1257.9 73.834C1257.9 76.2949 1256.09 78.1934 1253.35 78.1758ZM1253.33 76.5586C1254.88 76.5586 1256.02 75.3633 1256.02 73.8691C1256.02 72.4102 1254.91 71.2324 1253.38 71.2324C1251.82 71.2324 1250.64 72.4629 1250.62 73.8867C1250.64 75.293 1251.76 76.5586 1253.33 76.5586ZM1272.51 63.7617V72.9902H1270.84V72.2344H1267.76V71.1797H1270.84V63.7617H1272.51ZM1259.38 69.5625C1262.42 69.5801 1266.28 69.5449 1269.68 69.1758L1269.76 70.248C1268.28 70.4502 1266.74 70.5732 1265.23 70.6523V73.0254H1263.58V70.7227C1262.15 70.7578 1260.8 70.7666 1259.57 70.7578L1259.38 69.5625ZM1272.51 73.5176V76.9102H1263.44V78.123H1272.98V79.3359H1261.8V75.8027H1270.85V74.6777H1261.73V73.5176H1272.51ZM1264.49 64.0254C1266.83 64.0254 1268.41 64.957 1268.43 66.3984C1268.41 67.875 1266.83 68.7539 1264.49 68.7539C1262.1 68.7539 1260.54 67.875 1260.55 66.3984C1260.54 64.957 1262.1 64.0254 1264.49 64.0254ZM1264.49 65.1504C1263.03 65.1504 1262.12 65.6426 1262.12 66.3984C1262.12 67.1543 1263.03 67.6289 1264.49 67.6289C1265.91 67.6289 1266.85 67.1543 1266.85 66.3984C1266.85 65.6426 1265.91 65.1504 1264.49 65.1504ZM1279.62 75.5215V73.957L1285.25 65.2734H1287.64V73.8867H1289.38V75.5215H1287.64V78H1285.81V75.5215H1279.62ZM1281.66 73.8867H1285.81V67.5762H1285.67L1281.66 73.7812V73.8867ZM1295.25 64.2715C1297.62 64.2891 1299.37 65.748 1299.38 67.8047C1299.37 69.8789 1297.62 71.3203 1295.25 71.3203C1292.86 71.3203 1291.1 69.8789 1291.1 67.8047C1291.1 65.748 1292.86 64.2891 1295.25 64.2715ZM1295.25 65.6777C1293.79 65.6602 1292.72 66.5215 1292.74 67.8047C1292.72 69.1055 1293.79 69.9668 1295.25 69.9668C1296.69 69.9668 1297.77 69.1055 1297.77 67.8047C1297.77 66.5215 1296.69 65.6602 1295.25 65.6777ZM1303.85 63.7441V71.7598H1302.18V63.7441H1303.85ZM1303.85 72.4805V76.4531H1295.16V77.9648H1304.38V79.3008H1293.55V75.2051H1302.2V73.8164H1293.49V72.4805H1303.85ZM1324.38 65.959V67.3125H1311.42V65.959H1317.08V63.9727H1318.74V65.959H1324.38ZM1325.15 76.3652V77.7188H1310.74V76.3652H1317.08V74.2734C1314.32 74.1064 1312.65 73.0166 1312.65 71.2676C1312.65 69.3691 1314.66 68.2617 1317.91 68.2617C1321.13 68.2617 1323.15 69.3691 1323.15 71.2676C1323.15 73.0166 1321.47 74.1064 1318.74 74.2734V76.3652H1325.15ZM1317.91 69.5801C1315.66 69.5801 1314.34 70.1777 1314.36 71.2676C1314.34 72.3574 1315.66 72.9551 1317.91 72.9727C1320.12 72.9551 1321.44 72.3574 1321.44 71.2676C1321.44 70.1777 1320.12 69.5801 1317.91 69.5801Z" fill="#3A3A3B" fill-opacity="0.5"/>
<path d="M1143.35 91.8672V96.0332H1145.74V96.9648H1143.35V101.201H1142.24V91.8672H1143.35ZM1138.41 101.518C1141.55 101.518 1143.47 102.59 1143.47 104.418C1143.47 106.264 1141.55 107.318 1138.41 107.318C1135.24 107.318 1133.31 106.264 1133.33 104.418C1133.31 102.59 1135.24 101.518 1138.41 101.518ZM1138.41 102.449C1135.96 102.432 1134.4 103.205 1134.4 104.418C1134.4 105.631 1135.96 106.404 1138.41 106.404C1140.83 106.404 1142.42 105.631 1142.42 104.418C1142.42 103.205 1140.83 102.432 1138.41 102.449ZM1133.2 98.8633C1136.37 98.8633 1138.23 98.7754 1140.41 98.3359L1140.55 99.2676C1138.28 99.707 1136.4 99.7949 1133.2 99.7949H1132.03V93.0977H1138.9V94.0293H1133.12V98.8633H1133.2ZM1159.57 91.8672V103.258H1158.46V91.8672H1159.57ZM1160.08 106.07V107.002H1149.67V102.221H1150.78V106.07H1160.08ZM1152.17 94.3105C1152.15 96.7891 1153.95 98.9512 1156.18 99.7949L1155.58 100.691C1153.79 99.9619 1152.3 98.4854 1151.63 96.5781C1150.97 98.5996 1149.48 100.208 1147.69 100.973L1147.06 100.094C1149.31 99.1797 1151.05 96.877 1151.06 94.3105V92.7285H1152.17V94.3105ZM1175.62 91.8672V107.371H1174.55V91.8672H1175.62ZM1172.54 92.2188V106.562H1171.47V98.9512H1169.24C1169.11 101.957 1167.82 103.855 1165.9 103.855C1163.9 103.855 1162.59 101.781 1162.59 98.5469C1162.59 95.2949 1163.9 93.2383 1165.9 93.2383C1167.79 93.2383 1169.07 95.0664 1169.22 98.002H1171.47V92.2188H1172.54ZM1165.9 94.2754C1164.53 94.2754 1163.63 95.9805 1163.65 98.5469C1163.63 101.096 1164.53 102.818 1165.9 102.818C1167.29 102.818 1168.18 101.096 1168.18 98.5469C1168.18 95.9805 1167.29 94.2754 1165.9 94.2754ZM1191.16 91.8672V107.371H1190.09V91.8672H1191.16ZM1187.92 92.3066V106.545H1186.85V99.2676H1183.32C1182.35 101.078 1180.84 102.695 1178.68 103.979L1178.01 103.17C1181.47 101.113 1183.27 98.1162 1183.51 94.8203H1178.63V93.8711H1184.6C1184.6 95.418 1184.33 96.9385 1183.74 98.3535H1186.85V92.3066H1187.92ZM1205.84 93.4316V103.398H1198.77V93.4316H1205.84ZM1199.88 94.3281V102.467H1204.76V94.3281H1199.88ZM1210.57 91.8672V107.389H1209.46V91.8672H1210.57ZM1219.72 93.6074V98.8457H1215.03V102.607C1216.91 102.607 1218.69 102.528 1220.83 102.168L1220.94 103.1C1218.69 103.486 1216.91 103.557 1214.94 103.557H1213.94V97.8965H1218.65V94.5566H1213.91V93.6074H1219.72ZM1226.6 91.8672V107.371H1225.52V99.0215H1223.01V106.545H1221.97V92.2363H1223.01V98.0723H1225.52V91.8672H1226.6ZM1241.47 96.7012V97.6328H1230.92V92.4297H1232.01V96.7012H1241.47ZM1243.12 99.8828V100.797H1228.93V99.8828H1243.12ZM1241.56 106.035V106.984H1230.85V102.484H1231.94V106.035H1241.56ZM1252.98 93.0977C1255.1 93.0977 1256.61 94.9521 1256.8 97.8965H1260.54V91.8672H1261.63V107.389H1260.54V98.8105H1256.81C1256.68 101.878 1255.15 103.82 1252.98 103.82C1250.71 103.82 1249.13 101.729 1249.15 98.459C1249.13 95.1895 1250.71 93.0977 1252.98 93.0977ZM1252.98 94.082C1251.33 94.082 1250.2 95.875 1250.2 98.459C1250.2 101.061 1251.33 102.836 1252.98 102.836C1254.62 102.836 1255.76 101.061 1255.76 98.459C1255.76 95.875 1254.62 94.082 1252.98 94.082ZM1268.71 93.4668V94.416H1266.02V102.379C1266.77 102.361 1267.75 102.3 1268.82 102.027L1268.98 102.977C1267.55 103.311 1266.39 103.328 1265.55 103.328H1264.92V93.4668H1268.71ZM1273.85 93.4668V94.416H1270.72V102.379C1272.04 102.37 1273.22 102.317 1274.55 101.975L1274.67 102.906C1273.14 103.275 1271.9 103.328 1270.38 103.328H1269.61V93.4668H1273.85ZM1277.36 91.8672V107.371H1276.25V98.5645H1273.04V97.6504H1276.25V91.8672H1277.36ZM1292.04 91.8672V97.1055H1294.43V98.0547H1292.04V103.504H1290.93V91.8672H1292.04ZM1289.26 93.8535V94.7852H1280.02V93.8535H1284.09V91.8848H1285.18V93.8535H1289.26ZM1284.64 95.7344C1286.84 95.7344 1288.33 96.8594 1288.33 98.5996C1288.33 100.34 1286.84 101.447 1284.64 101.447C1282.41 101.447 1280.93 100.34 1280.93 98.5996C1280.93 96.8594 1282.41 95.7344 1284.64 95.7344ZM1284.64 96.6309C1283.04 96.6309 1281.97 97.4219 1281.99 98.5996C1281.97 99.7598 1283.04 100.551 1284.64 100.533C1286.22 100.551 1287.28 99.7598 1287.29 98.5996C1287.28 97.4219 1286.22 96.6309 1284.64 96.6309ZM1292.8 106.07V107.002H1282.44V102.555H1283.53V106.07H1292.8ZM1307.61 93.7656C1307.61 95.8574 1310.53 97.4219 1313.08 97.7734L1312.62 98.6875C1310.27 98.3008 1307.76 97.0439 1306.93 95.1367C1306.09 97.0527 1303.59 98.3008 1301.23 98.6875L1300.79 97.7734C1303.33 97.4219 1306.24 95.8574 1306.24 93.7656V93.5898H1301.16V92.6582H1312.73V93.5898H1307.61V93.7656ZM1312.43 106.07V107.002H1301.73V102.625H1302.85V106.07H1312.43ZM1314.05 100.322V101.254H1299.86V100.322H1306.38V97.5801H1307.47V100.322H1314.05ZM1328.67 91.8672V107.371H1327.6V99.1973H1325.23V106.562H1324.17V92.2188H1325.23V98.2305H1327.6V91.8672H1328.67ZM1319.9 96.2266C1319.9 99.0918 1321.18 101.588 1323.35 102.678L1322.68 103.557C1321.08 102.687 1319.94 101.096 1319.39 99.1094C1318.86 101.368 1317.68 103.1 1316.02 104.084L1315.3 103.24C1317.51 102.027 1318.83 99.4258 1318.83 96.2266V94.7324H1315.63V93.7832H1322.94V94.7324H1319.9V96.2266ZM1343.72 91.8672V103.275H1342.61V91.8672H1343.72ZM1344.23 106.07V107.002H1333.82V102.098H1334.93V106.07H1344.23ZM1335.39 92.9922C1337.69 92.9922 1339.4 94.5391 1339.4 96.7539C1339.4 98.9863 1337.69 100.551 1335.39 100.533C1333.08 100.551 1331.36 98.9863 1331.38 96.7539C1331.36 94.5391 1333.08 92.9922 1335.39 92.9922ZM1335.39 93.959C1333.7 93.959 1332.45 95.1543 1332.45 96.7539C1332.45 98.3711 1333.7 99.5488 1335.39 99.5488C1337.06 99.5488 1338.32 98.3711 1338.32 96.7539C1338.32 95.1543 1337.06 93.959 1335.39 93.959ZM1358.47 91.8672V98.2832H1361.09V99.2324H1358.47V107.371H1357.36V91.8672H1358.47ZM1354.5 93.5547C1354.48 97.8613 1352.33 101.852 1347.32 104.33L1346.71 103.451C1350.84 101.412 1353.09 98.2305 1353.37 94.4863H1347.39V93.5547H1354.5ZM1376.29 104.365V105.314H1362.09V104.365H1365.71V100.059C1364.35 99.373 1363.53 98.2568 1363.53 96.8594C1363.53 94.4688 1365.85 92.9219 1369.14 92.9043C1372.44 92.9219 1374.76 94.4688 1374.76 96.8594C1374.76 98.2393 1373.96 99.3467 1372.64 100.023V104.365H1376.29ZM1369.14 93.8359C1366.5 93.8184 1364.58 95.0488 1364.58 96.8594C1364.58 98.6348 1366.5 99.8828 1369.14 99.8652C1371.77 99.8828 1373.71 98.6348 1373.71 96.8594C1373.71 95.0488 1371.77 93.8184 1369.14 93.8359ZM1366.8 104.365H1371.53V100.445C1370.82 100.656 1370.01 100.762 1369.14 100.762C1368.29 100.762 1367.49 100.656 1366.8 100.463V104.365ZM1380.16 102.062C1380.18 100.041 1380.83 99.3379 1382.04 98.5469C1382.94 97.9844 1383.45 97.2988 1383.45 96.332C1383.45 95.0312 1382.43 94.1699 1381.14 94.1699C1379.95 94.1699 1378.88 94.9434 1378.81 96.4551H1377.54C1377.59 94.3984 1379.16 93.0977 1381.14 93.0977C1383.24 93.0977 1384.66 94.4863 1384.66 96.3848C1384.66 97.668 1384.06 98.5645 1382.9 99.3203C1381.78 100.041 1381.39 100.674 1381.37 102.062V102.361H1380.16V102.062ZM1380.81 106.088C1380.28 106.088 1379.86 105.666 1379.86 105.156C1379.86 104.629 1380.28 104.207 1380.81 104.207C1381.32 104.207 1381.74 104.629 1381.74 105.156C1381.74 105.666 1381.32 106.088 1380.81 106.088Z" fill="#65744B" fill-opacity="0.7"/>
<path d="M1167.48 435V433.594L1171.89 429.146C1173.28 427.688 1173.99 426.879 1173.99 425.771C1173.99 424.523 1172.97 423.715 1171.63 423.715C1170.22 423.715 1169.31 424.611 1169.31 425.965H1167.48C1167.46 423.645 1169.24 422.098 1171.67 422.098C1174.13 422.098 1175.81 423.645 1175.83 425.719C1175.81 427.143 1175.15 428.268 1172.75 430.623L1170.17 433.242V433.348H1176.04V435H1167.48ZM1182.62 435.176C1179.66 435.176 1177.94 432.803 1177.94 428.637C1177.94 424.506 1179.7 422.098 1182.62 422.098C1185.53 422.098 1187.29 424.506 1187.29 428.637C1187.29 432.803 1185.55 435.176 1182.62 435.176ZM1182.62 433.506C1184.34 433.506 1185.36 431.818 1185.36 428.637C1185.36 425.473 1184.32 423.732 1182.62 423.732C1180.91 423.732 1179.87 425.473 1179.87 428.637C1179.87 431.818 1180.89 433.506 1182.62 433.506ZM1189.3 435V433.594L1193.71 429.146C1195.1 427.688 1195.8 426.879 1195.8 425.771C1195.8 424.523 1194.78 423.715 1193.44 423.715C1192.04 423.715 1191.12 424.611 1191.12 425.965H1189.3C1189.28 423.645 1191.05 422.098 1193.48 422.098C1195.94 422.098 1197.63 423.645 1197.65 425.719C1197.63 427.143 1196.96 428.268 1194.57 430.623L1191.99 433.242V433.348H1197.86V435H1189.3ZM1199.44 432.521V430.957L1205.06 422.273H1207.45V430.887H1209.19V432.521H1207.45V435H1205.63V432.521H1199.44ZM1201.48 430.887H1205.63V424.576H1205.49L1201.48 430.781V430.887ZM1223.73 420.762V432.398H1222.06V427.037H1217.74V425.701H1222.06V424.049H1217.74V422.713H1222.06V420.762H1223.73ZM1224.14 434.807V436.16H1213.47V431.379H1215.15V434.807H1224.14ZM1213.18 421.852V428.742C1215.28 428.742 1217.26 428.61 1219.51 428.197L1219.69 429.568C1217.19 430.043 1215.07 430.131 1212.75 430.148H1211.53V421.852H1213.18ZM1231.54 435L1237.21 424.031V423.926H1230.66V422.273H1239.22V423.996L1233.56 435H1231.54ZM1253.72 420.762V429.99H1252.05V429.234H1248.97V428.18H1252.05V420.762H1253.72ZM1240.59 426.562C1243.63 426.58 1247.5 426.545 1250.89 426.176L1250.98 427.248C1249.49 427.45 1247.95 427.573 1246.44 427.652V430.025H1244.79V427.723C1243.37 427.758 1242.01 427.767 1240.78 427.758L1240.59 426.562ZM1253.72 430.518V433.91H1244.65V435.123H1254.19V436.336H1243.01V432.803H1252.07V431.678H1242.94V430.518H1253.72ZM1245.7 421.025C1248.04 421.025 1249.62 421.957 1249.64 423.398C1249.62 424.875 1248.04 425.754 1245.7 425.754C1243.31 425.754 1241.75 424.875 1241.77 423.398C1241.75 421.957 1243.31 421.025 1245.7 421.025ZM1245.7 422.15C1244.25 422.15 1243.33 422.643 1243.33 423.398C1243.33 424.154 1244.25 424.629 1245.7 424.629C1247.13 424.629 1248.06 424.154 1248.06 423.398C1248.06 422.643 1247.13 422.15 1245.7 422.15ZM1265.95 422.273V435H1264V424.207H1263.93L1260.89 426.193V424.348L1264.06 422.273H1265.95ZM1269.63 435L1275.31 424.031V423.926H1268.75V422.273H1277.31V423.996L1271.65 435H1269.63ZM1283.18 421.271C1285.55 421.289 1287.29 422.748 1287.31 424.805C1287.29 426.879 1285.55 428.32 1283.18 428.32C1280.79 428.32 1279.03 426.879 1279.03 424.805C1279.03 422.748 1280.79 421.289 1283.18 421.271ZM1283.18 422.678C1281.72 422.66 1280.65 423.521 1280.67 424.805C1280.65 426.105 1281.72 426.967 1283.18 426.967C1284.62 426.967 1285.69 426.105 1285.69 424.805C1285.69 423.521 1284.62 422.66 1283.18 422.678ZM1291.78 420.744V428.76H1290.11V420.744H1291.78ZM1291.78 429.48V433.453H1283.09V434.965H1292.3V436.301H1281.48V432.205H1290.12V430.816H1281.42V429.48H1291.78ZM1312.31 422.959V424.312H1299.35V422.959H1305.01V420.973H1306.67V422.959H1312.31ZM1313.08 433.365V434.719H1298.67V433.365H1305.01V431.273C1302.25 431.106 1300.58 430.017 1300.58 428.268C1300.58 426.369 1302.59 425.262 1305.84 425.262C1309.06 425.262 1311.08 426.369 1311.08 428.268C1311.08 430.017 1309.4 431.106 1306.67 431.273V433.365H1313.08ZM1305.84 426.58C1303.59 426.58 1302.27 427.178 1302.29 428.268C1302.27 429.357 1303.59 429.955 1305.84 429.973C1308.05 429.955 1309.37 429.357 1309.37 428.268C1309.37 427.178 1308.05 426.58 1305.84 426.58Z" fill="#3A3A3B" fill-opacity="0.5"/>
<path d="M1023.32 452.867V457.033H1025.71V457.965H1023.32V462.201H1022.22V452.867H1023.32ZM1018.38 462.518C1021.53 462.518 1023.45 463.59 1023.45 465.418C1023.45 467.264 1021.53 468.318 1018.38 468.318C1015.22 468.318 1013.29 467.264 1013.3 465.418C1013.29 463.59 1015.22 462.518 1018.38 462.518ZM1018.38 463.449C1015.94 463.432 1014.38 464.205 1014.38 465.418C1014.38 466.631 1015.94 467.404 1018.38 467.404C1020.81 467.404 1022.39 466.631 1022.39 465.418C1022.39 464.205 1020.81 463.432 1018.38 463.449ZM1013.18 459.863C1016.34 459.863 1018.21 459.775 1020.39 459.336L1020.53 460.268C1018.26 460.707 1016.38 460.795 1013.18 460.795H1012V454.098H1018.88V455.029H1013.09V459.863H1013.18ZM1039.55 452.867V464.258H1038.44V452.867H1039.55ZM1040.06 467.07V468.002H1029.65V463.221H1030.76V467.07H1040.06ZM1032.15 455.311C1032.13 457.789 1033.92 459.951 1036.16 460.795L1035.56 461.691C1033.76 460.962 1032.28 459.485 1031.6 457.578C1030.94 459.6 1029.46 461.208 1027.67 461.973L1027.03 461.094C1029.28 460.18 1031.02 457.877 1031.04 455.311V453.729H1032.15V455.311ZM1047.44 454.027C1049.88 454.027 1051.57 455.486 1051.59 457.613C1051.57 459.758 1049.88 461.199 1047.44 461.199C1045.01 461.199 1043.29 459.758 1043.29 457.613C1043.29 455.486 1045.01 454.027 1047.44 454.027ZM1047.44 455.012C1045.67 455.012 1044.36 456.102 1044.38 457.613C1044.36 459.125 1045.67 460.232 1047.44 460.215C1049.22 460.232 1050.5 459.125 1050.5 457.613C1050.5 456.102 1049.22 455.012 1047.44 455.012ZM1054.98 452.867V468.389H1053.87V452.867H1054.98ZM1042.45 463.906C1045.35 463.924 1049.32 463.906 1052.8 463.379L1052.89 464.223C1049.3 464.891 1045.44 464.891 1042.62 464.891L1042.45 463.906ZM1075 452.867V468.371H1073.91V452.867H1075ZM1070.43 454.572C1070.42 458.949 1068.22 462.904 1063.12 465.365L1062.5 464.451C1066.76 462.438 1069.04 459.266 1069.33 455.486H1063.19V454.572H1070.43ZM1090.59 462.922V468.389H1089.49V463.818H1080.24V462.922H1090.59ZM1090.59 452.867V461.99H1089.49V457.895H1086.02C1085.78 459.828 1084.19 461.129 1082.07 461.111C1079.75 461.129 1078.06 459.617 1078.08 457.438C1078.06 455.275 1079.75 453.764 1082.07 453.764C1084.18 453.764 1085.76 455.047 1086.01 456.945H1089.49V452.867H1090.59ZM1082.07 454.713C1080.38 454.713 1079.13 455.891 1079.13 457.438C1079.13 459.02 1080.38 460.162 1082.07 460.162C1083.72 460.162 1084.97 459.02 1084.97 457.438C1084.97 455.891 1083.72 454.713 1082.07 454.713ZM1106.61 452.867V468.371H1105.54V452.867H1106.61ZM1103.53 453.219V467.562H1102.46V459.951H1100.23C1100.1 462.957 1098.8 464.855 1096.89 464.855C1094.88 464.855 1093.58 462.781 1093.58 459.547C1093.58 456.295 1094.88 454.238 1096.89 454.238C1098.78 454.238 1100.06 456.066 1100.21 459.002H1102.46V453.219H1103.53ZM1096.89 455.275C1095.52 455.275 1094.62 456.98 1094.64 459.547C1094.62 462.096 1095.52 463.818 1096.89 463.818C1098.28 463.818 1099.17 462.096 1099.17 459.547C1099.17 456.98 1098.28 455.275 1096.89 455.275ZM1121.51 453.939C1121.51 457.807 1118.53 460.496 1114.01 461.656L1113.55 460.742C1117.52 459.775 1120.07 457.648 1120.34 454.871H1114.33V453.939H1121.51ZM1126 452.867V461.41H1124.89V452.867H1126ZM1126.31 462.324V463.238H1124.03V467.193H1126.49V468.125H1115.78V467.193H1118.19V463.238H1115.92V462.324H1126.31ZM1119.28 467.193H1122.94V463.238H1119.28V467.193ZM1142.05 452.867V468.371H1140.97V452.867H1142.05ZM1138.81 453.307V467.545H1137.74V460.268H1134.21C1133.24 462.078 1131.73 463.695 1129.57 464.979L1128.9 464.17C1132.36 462.113 1134.15 459.116 1134.4 455.82H1129.51V454.871H1135.49C1135.49 456.418 1135.22 457.938 1134.63 459.354H1137.74V453.307H1138.81ZM1160.8 452.867V456.523H1163.21V457.473H1160.8V461.639H1159.69V452.867H1160.8ZM1160.8 462.535V468.143H1151.08V462.535H1160.8ZM1152.15 463.432V467.211H1159.71V463.432H1152.15ZM1150.64 453.658V459.371H1150.73C1153.01 459.371 1155.35 459.195 1157.95 458.668L1158.09 459.617C1155.42 460.162 1153.1 460.32 1150.73 460.32H1149.52V453.658H1150.64ZM1168.41 454.098C1170.68 454.098 1172.28 456.189 1172.28 459.459C1172.28 462.729 1170.68 464.82 1168.41 464.82C1166.15 464.82 1164.56 462.729 1164.58 459.459C1164.56 456.189 1166.15 454.098 1168.41 454.098ZM1168.41 455.082C1166.78 455.082 1165.62 456.875 1165.62 459.459C1165.62 462.061 1166.78 463.836 1168.41 463.836C1170.08 463.836 1171.21 462.061 1171.23 459.459C1171.21 456.875 1170.08 455.082 1168.41 455.082ZM1176.22 452.867V459.178H1178.89V460.127H1176.22V468.371H1175.11V452.867H1176.22ZM1184.95 463.414C1184.95 464.829 1185.77 466.35 1187.31 467.176C1188.85 466.262 1189.7 464.636 1189.7 463.414V462.447H1190.79V463.414C1190.77 465.014 1192.06 466.631 1194.02 467.316L1193.46 468.16C1191.9 467.589 1190.75 466.464 1190.23 465.137C1189.76 466.411 1188.79 467.659 1187.34 468.283C1185.82 467.694 1184.84 466.517 1184.39 465.189C1183.85 466.455 1182.73 467.58 1181.23 468.16L1180.65 467.316C1182.6 466.596 1183.88 464.891 1183.88 463.414V462.447H1184.95V463.414ZM1192.58 452.867V461.762H1191.48V452.867H1192.58ZM1184.25 453.816C1186.59 453.816 1188.26 455.258 1188.26 457.402C1188.26 459.529 1186.59 460.971 1184.25 460.971C1181.91 460.971 1180.23 459.529 1180.24 457.402C1180.23 455.258 1181.91 453.816 1184.25 453.816ZM1184.25 454.766C1182.55 454.766 1181.32 455.873 1181.32 457.402C1181.32 458.932 1182.55 460.039 1184.25 460.039C1185.96 460.039 1187.19 458.932 1187.19 457.402C1187.19 455.873 1185.96 454.766 1184.25 454.766ZM1203.87 454.098C1205.3 454.098 1206.46 454.95 1207.12 456.418H1211.43V452.867H1212.52V468.389H1211.43V462.307H1207.21C1206.56 463.889 1205.37 464.82 1203.87 464.82C1201.6 464.82 1200.02 462.729 1200.04 459.459C1200.02 456.189 1201.6 454.098 1203.87 454.098ZM1203.87 455.082C1202.22 455.082 1201.09 456.875 1201.09 459.459C1201.09 462.061 1202.22 463.836 1203.87 463.836C1205.5 463.836 1206.65 462.061 1206.65 459.459C1206.65 456.875 1205.5 455.082 1203.87 455.082ZM1207.45 457.367C1207.6 457.991 1207.7 458.694 1207.7 459.459C1207.7 460.145 1207.62 460.786 1207.49 461.357H1211.43V457.367H1207.45ZM1228.41 452.867V462.711H1227.35V458.141H1225V462.148H1223.96V453.166H1225V457.227H1227.35V452.867H1228.41ZM1223.27 454.801V455.732H1215.21V454.801H1218.7V452.973H1219.81V454.801H1223.27ZM1219.25 456.629C1221.22 456.646 1222.55 457.666 1222.57 459.283C1222.55 460.883 1221.22 461.902 1219.25 461.902C1217.28 461.902 1215.93 460.883 1215.94 459.283C1215.93 457.666 1217.28 456.646 1219.25 456.629ZM1219.25 457.49C1217.88 457.49 1216.93 458.229 1216.93 459.283C1216.93 460.32 1217.88 461.041 1219.25 461.041C1220.62 461.041 1221.55 460.32 1221.55 459.283C1221.55 458.229 1220.62 457.49 1219.25 457.49ZM1223.34 463.01C1226.56 463.01 1228.5 463.977 1228.5 465.682C1228.5 467.369 1226.56 468.318 1223.34 468.318C1220.09 468.318 1218.18 467.369 1218.18 465.682C1218.18 463.977 1220.09 463.01 1223.34 463.01ZM1223.34 463.906C1220.83 463.889 1219.27 464.557 1219.28 465.682C1219.27 466.771 1220.83 467.439 1223.34 467.439C1225.84 467.439 1227.39 466.771 1227.41 465.682C1227.39 464.557 1225.84 463.889 1223.34 463.906ZM1236.25 457.807C1236.25 460.461 1238.37 463.15 1240.55 464.1L1239.92 464.979C1238.14 464.144 1236.43 462.289 1235.7 460.074C1234.98 462.403 1233.29 464.46 1231.55 465.365L1230.89 464.486C1233 463.449 1235.12 460.496 1235.14 457.807V455.434H1231.36V454.484H1240.08V455.434H1236.25V457.807ZM1243.58 452.867V468.371H1242.47V452.867H1243.58ZM1251.1 453.904C1253.47 453.904 1255.18 455.346 1255.2 457.49C1255.18 459.459 1253.74 460.821 1251.66 461.023V463.836C1253.18 463.783 1254.71 463.669 1256.13 463.484L1256.22 464.328C1252.89 464.873 1249.18 464.926 1246.42 464.908L1246.21 463.959C1247.51 463.95 1249 463.941 1250.56 463.889V461.023C1248.43 460.839 1246.99 459.468 1247 457.49C1246.99 455.346 1248.67 453.904 1251.1 453.904ZM1251.1 454.854C1249.34 454.871 1248.08 455.961 1248.08 457.49C1248.08 459.02 1249.34 460.127 1251.1 460.109C1252.84 460.127 1254.09 459.02 1254.11 457.49C1254.09 455.961 1252.84 454.871 1251.1 454.854ZM1258.27 452.867V459.371H1260.94V460.32H1258.27V468.371H1257.18V452.867H1258.27ZM1278.49 454.59V456.049C1278.47 457.93 1278.47 460.18 1277.89 463.607L1276.75 463.467C1277.4 460.25 1277.4 457.895 1277.4 456.049V455.521H1267.87V454.59H1278.49ZM1280.44 465.066V466.016H1266.31V465.066H1280.44ZM1294.15 453.623V454.695C1294.15 455.855 1294.15 457.227 1293.73 459.09L1292.66 458.949C1293.06 457.104 1293.06 455.82 1293.06 454.695V454.537H1283.57V453.623H1294.15ZM1296 460.232V461.146H1281.86V460.232H1287.89V457.016H1288.98V460.232H1296ZM1289.44 463.273C1289.44 465.471 1292.18 467 1294.82 467.422L1294.36 468.301C1292.08 467.888 1289.77 466.745 1288.88 464.943C1287.96 466.745 1285.65 467.888 1283.37 468.301L1282.95 467.422C1285.55 467 1288.3 465.471 1288.31 463.273V462.465H1289.44V463.273ZM1310.66 452.867V468.371H1309.58V452.867H1310.66ZM1307.58 453.219V467.562H1306.51V459.951H1304.27C1304.14 462.957 1302.85 464.855 1300.93 464.855C1298.93 464.855 1297.63 462.781 1297.63 459.547C1297.63 456.295 1298.93 454.238 1300.93 454.238C1302.82 454.238 1304.11 456.066 1304.26 459.002H1306.51V453.219H1307.58ZM1300.93 455.275C1299.56 455.275 1298.67 456.98 1298.68 459.547C1298.67 462.096 1299.56 463.818 1300.93 463.818C1302.32 463.818 1303.22 462.096 1303.22 459.547C1303.22 456.98 1302.32 455.275 1300.93 455.275ZM1318.28 457.244C1318.28 460.004 1320.31 462.834 1322.45 463.836L1321.78 464.75C1320.03 463.827 1318.43 461.867 1317.76 459.6C1317.07 461.99 1315.49 464.073 1313.75 465.031L1313.03 464.152C1315.17 463.062 1317.16 460.074 1317.18 457.244V454.256H1318.28V457.244ZM1325.75 452.867V468.389H1324.67V459.213H1320.76V458.281H1324.67V452.867H1325.75ZM1347.01 462.271V463.203H1340.49V468.389H1339.4V463.203H1332.87V462.271H1347.01ZM1340.49 455.891C1340.49 458 1343.51 459.67 1346.04 460.039L1345.64 460.953C1343.35 460.566 1340.91 459.327 1339.96 457.525C1338.98 459.354 1336.52 460.566 1334.23 460.953L1333.82 460.039C1336.35 459.67 1339.38 458 1339.4 455.891V455.75H1334.28V454.818H1339.4V452.832H1340.49V454.818H1345.62V455.75H1340.49V455.891ZM1361.21 462.922V468.389H1360.1V463.818H1350.86V462.922H1361.21ZM1361.21 452.867V461.99H1360.1V457.895H1356.64C1356.39 459.828 1354.8 461.129 1352.68 461.111C1350.36 461.129 1348.68 459.617 1348.69 457.438C1348.68 455.275 1350.36 453.764 1352.68 453.764C1354.79 453.764 1356.38 455.047 1356.62 456.945H1360.1V452.867H1361.21ZM1352.68 454.713C1351 454.713 1349.75 455.891 1349.75 457.438C1349.75 459.02 1351 460.162 1352.68 460.162C1354.34 460.162 1355.58 459.02 1355.58 457.438C1355.58 455.891 1354.34 454.713 1352.68 454.713ZM1378.12 461.111V462.025H1363.99V461.111H1378.12ZM1376.56 467.07V468.002H1365.85V463.502H1366.98V467.07H1376.56ZM1371.04 453.412C1374.36 453.412 1376.47 454.537 1376.47 456.471C1376.47 458.387 1374.36 459.529 1371.04 459.529C1367.7 459.529 1365.6 458.387 1365.6 456.471C1365.6 454.537 1367.7 453.412 1371.04 453.412ZM1371.04 454.326C1368.43 454.344 1366.73 455.17 1366.75 456.471C1366.73 457.789 1368.43 458.598 1371.04 458.598C1373.64 458.598 1375.34 457.789 1375.34 456.471C1375.34 455.17 1373.64 454.344 1371.04 454.326ZM1398.05 461.99V462.922H1391.46V468.354H1390.39V462.922H1383.87V461.99H1398.05ZM1396.17 453.746V459.723H1385.75V453.746H1396.17ZM1386.84 454.678V458.844H1395.08V454.678H1386.84ZM1412.22 452.867V463.572H1411.11V458.141H1407.63C1407.4 460.065 1405.81 461.375 1403.7 461.375C1401.38 461.375 1399.69 459.846 1399.71 457.666C1399.69 455.451 1401.38 453.939 1403.7 453.939C1405.82 453.939 1407.41 455.249 1407.65 457.209H1411.11V452.867H1412.22ZM1403.7 454.889C1401.99 454.889 1400.76 456.084 1400.76 457.666C1400.76 459.248 1401.99 460.426 1403.7 460.408C1405.35 460.426 1406.6 459.248 1406.6 457.666C1406.6 456.084 1405.35 454.889 1403.7 454.889ZM1407.84 462.939C1407.84 465.295 1410.64 466.93 1413.22 467.387L1412.75 468.283C1410.48 467.844 1408.17 466.596 1407.28 464.662C1406.37 466.587 1404.04 467.844 1401.78 468.283L1401.34 467.387C1403.89 466.93 1406.7 465.242 1406.72 462.939V462.254H1407.84V462.939ZM1427.74 452.867V464.275H1426.64V452.867H1427.74ZM1428.25 467.07V468.002H1417.85V463.098H1418.95V467.07H1428.25ZM1419.41 453.992C1421.71 453.992 1423.42 455.539 1423.42 457.754C1423.42 459.986 1421.71 461.551 1419.41 461.533C1417.11 461.551 1415.39 459.986 1415.4 457.754C1415.39 455.539 1417.11 453.992 1419.41 453.992ZM1419.41 454.959C1417.72 454.959 1416.48 456.154 1416.48 457.754C1416.48 459.371 1417.72 460.549 1419.41 460.549C1421.08 460.549 1422.35 459.371 1422.35 457.754C1422.35 456.154 1421.08 454.959 1419.41 454.959ZM1442.49 452.867V459.283H1445.11V460.232H1442.49V468.371H1441.38V452.867H1442.49ZM1438.52 454.555C1438.5 458.861 1436.36 462.852 1431.35 465.33L1430.73 464.451C1434.86 462.412 1437.11 459.23 1437.39 455.486H1431.42V454.555H1438.52ZM1460.32 465.365V466.314H1446.11V465.365H1449.73V461.059C1448.37 460.373 1447.55 459.257 1447.55 457.859C1447.55 455.469 1449.87 453.922 1453.16 453.904C1456.47 453.922 1458.79 455.469 1458.79 457.859C1458.79 459.239 1457.99 460.347 1456.66 461.023V465.365H1460.32ZM1453.16 454.836C1450.52 454.818 1448.61 456.049 1448.61 457.859C1448.61 459.635 1450.52 460.883 1453.16 460.865C1455.8 460.883 1457.73 459.635 1457.73 457.859C1457.73 456.049 1455.8 454.818 1453.16 454.836ZM1450.82 465.365H1455.55V461.445C1454.84 461.656 1454.03 461.762 1453.16 461.762C1452.31 461.762 1451.52 461.656 1450.82 461.463V465.365ZM1464.18 463.062C1464.2 461.041 1464.85 460.338 1466.06 459.547C1466.96 458.984 1467.47 458.299 1467.47 457.332C1467.47 456.031 1466.45 455.17 1465.17 455.17C1463.97 455.17 1462.9 455.943 1462.83 457.455H1461.56C1461.62 455.398 1463.18 454.098 1465.17 454.098C1467.26 454.098 1468.68 455.486 1468.68 457.385C1468.68 458.668 1468.08 459.564 1466.92 460.32C1465.8 461.041 1465.41 461.674 1465.4 463.062V463.361H1464.18V463.062ZM1464.83 467.088C1464.31 467.088 1463.88 466.666 1463.88 466.156C1463.88 465.629 1464.31 465.207 1464.83 465.207C1465.34 465.207 1465.76 465.629 1465.76 466.156C1465.76 466.666 1465.34 467.088 1464.83 467.088Z" fill="#65744B" fill-opacity="0.7"/>
<path d="M524.125 116V114.594L528.537 110.146C529.926 108.688 530.629 107.879 530.629 106.771C530.629 105.523 529.609 104.715 528.273 104.715C526.867 104.715 525.953 105.611 525.953 106.965H524.125C524.107 104.645 525.883 103.098 528.309 103.098C530.77 103.098 532.457 104.645 532.475 106.719C532.457 108.143 531.789 109.268 529.398 111.623L526.814 114.242V114.348H532.686V116H524.125ZM539.26 116.176C536.307 116.176 534.584 113.803 534.584 109.637C534.584 105.506 536.342 103.098 539.26 103.098C542.178 103.098 543.936 105.506 543.936 109.637C543.936 113.803 542.195 116.176 539.26 116.176ZM539.26 114.506C540.982 114.506 542.002 112.818 542.002 109.637C542.002 106.473 540.965 104.732 539.26 104.732C537.555 104.732 536.518 106.473 536.518 109.637C536.518 112.818 537.537 114.506 539.26 114.506ZM545.939 116V114.594L550.352 110.146C551.74 108.688 552.443 107.879 552.443 106.771C552.443 105.523 551.424 104.715 550.088 104.715C548.682 104.715 547.768 105.611 547.768 106.965H545.939C545.922 104.645 547.697 103.098 550.123 103.098C552.584 103.098 554.271 104.645 554.289 106.719C554.271 108.143 553.604 109.268 551.213 111.623L548.629 114.242V114.348H554.5V116H545.939ZM556.082 113.521V111.957L561.707 103.273H564.098V111.887H565.838V113.521H564.098V116H562.27V113.521H556.082ZM558.121 111.887H562.27V105.576H562.129L558.121 111.781V111.887ZM580.375 101.762V113.398H578.705V108.037H574.381V106.701H578.705V105.049H574.381V103.713H578.705V101.762H580.375ZM580.779 115.807V117.16H570.109V112.379H571.797V115.807H580.779ZM569.828 102.852V109.742C571.92 109.742 573.906 109.61 576.156 109.197L576.332 110.568C573.836 111.043 571.709 111.131 569.389 111.148H568.176V102.852H569.828ZM587.459 113.521V111.957L593.084 103.273H595.475V111.887H597.215V113.521H595.475V116H593.646V113.521H587.459ZM589.498 111.887H593.646V105.576H593.506L589.498 111.781V111.887ZM611.717 101.762V110.99H610.047V110.234H606.971V109.18H610.047V101.762H611.717ZM598.586 107.562C601.627 107.58 605.494 107.545 608.887 107.176L608.975 108.248C607.489 108.45 605.951 108.573 604.439 108.652V111.025H602.787V108.723C601.363 108.758 600.01 108.767 598.779 108.758L598.586 107.562ZM611.717 111.518V114.91H602.646V116.123H612.191V117.336H601.012V113.803H610.064V112.678H600.941V111.518H611.717ZM603.701 102.025C606.039 102.025 607.621 102.957 607.639 104.398C607.621 105.875 606.039 106.754 603.701 106.754C601.311 106.754 599.746 105.875 599.764 104.398C599.746 102.957 601.311 102.025 603.701 102.025ZM603.701 103.15C602.242 103.15 601.328 103.643 601.328 104.398C601.328 105.154 602.242 105.629 603.701 105.629C605.125 105.629 606.057 105.154 606.057 104.398C606.057 103.643 605.125 103.15 603.701 103.15ZM623.723 116.176C621.367 116.158 618.906 114.77 618.906 110.059C618.906 105.629 620.822 103.098 623.881 103.098C626.219 103.098 627.854 104.557 628.152 106.578H626.236C625.99 105.541 625.164 104.785 623.881 104.785C621.912 104.785 620.77 106.508 620.77 109.373H620.91C621.596 108.301 622.791 107.65 624.18 107.65C626.447 107.65 628.275 109.391 628.275 111.834C628.275 114.295 626.465 116.193 623.723 116.176ZM623.705 114.559C625.252 114.559 626.395 113.363 626.395 111.869C626.395 110.41 625.287 109.232 623.758 109.232C622.193 109.232 621.016 110.463 620.998 111.887C621.016 113.293 622.141 114.559 623.705 114.559ZM634.252 102.271C636.625 102.289 638.365 103.748 638.383 105.805C638.365 107.879 636.625 109.32 634.252 109.32C631.861 109.32 630.104 107.879 630.104 105.805C630.104 103.748 631.861 102.289 634.252 102.271ZM634.252 103.678C632.793 103.66 631.721 104.521 631.738 105.805C631.721 107.105 632.793 107.967 634.252 107.967C635.693 107.967 636.766 107.105 636.766 105.805C636.766 104.521 635.693 103.66 634.252 103.678ZM642.848 101.744V109.76H641.178V101.744H642.848ZM642.848 110.48V114.453H634.164V115.965H643.375V117.301H632.547V113.205H641.195V111.816H632.494V110.48H642.848ZM663.379 103.959V105.312H650.424V103.959H656.084V101.973H657.736V103.959H663.379ZM664.152 114.365V115.719H649.738V114.365H656.084V112.273C653.324 112.106 651.654 111.017 651.654 109.268C651.654 107.369 653.658 106.262 656.91 106.262C660.127 106.262 662.148 107.369 662.148 109.268C662.148 111.017 660.47 112.106 657.736 112.273V114.365H664.152ZM656.91 107.58C654.66 107.58 653.342 108.178 653.359 109.268C653.342 110.357 654.66 110.955 656.91 110.973C659.125 110.955 660.443 110.357 660.443 109.268C660.443 108.178 659.125 107.58 656.91 107.58Z" fill="#3A3A3B" fill-opacity="0.5"/>
<path d="M454.529 129.867V136.354H457.201V137.303H454.529V145.371H453.422V129.867H454.529ZM451.77 132.416V133.348H442.506V132.416H446.637V130.025H447.744V132.416H451.77ZM447.217 134.771C449.396 134.771 450.961 136.213 450.961 138.287C450.961 140.361 449.396 141.803 447.217 141.803C445.037 141.803 443.455 140.361 443.473 138.287C443.455 136.213 445.037 134.771 447.217 134.771ZM447.217 135.703C445.67 135.721 444.527 136.811 444.527 138.287C444.527 139.764 445.67 140.854 447.217 140.836C448.764 140.854 449.906 139.764 449.906 138.287C449.906 136.811 448.764 135.721 447.217 135.703ZM470.578 130.535V134.367H461.016V136.6H470.912V137.549H459.908V133.471H469.453V131.449H459.855V130.535H470.578ZM472.318 139.324V140.238H465.762V145.389H464.654V140.238H458.133V139.324H472.318ZM492.182 137.18V138.129H485.66V139.922C488.657 140.054 490.424 141.003 490.424 142.629C490.424 144.352 488.438 145.318 485.115 145.318C481.758 145.318 479.771 144.352 479.771 142.629C479.771 141.003 481.538 140.054 484.553 139.922V138.129H478.049V137.18H492.182ZM485.115 140.818C482.514 140.818 480.896 141.504 480.896 142.629C480.896 143.754 482.514 144.439 485.115 144.439C487.682 144.439 489.316 143.754 489.316 142.629C489.316 141.504 487.682 140.818 485.115 140.818ZM485.801 131.572C485.801 133.523 488.754 134.947 491.338 135.246L490.916 136.125C488.508 135.809 485.95 134.666 485.115 132.855C484.263 134.666 481.723 135.809 479.332 136.125L478.91 135.246C481.441 134.947 484.43 133.541 484.43 131.572V131.52H479.35V130.605H490.916V131.52H485.801V131.572ZM509.883 129.867V136.283H512.502V137.232H509.883V145.371H508.775V129.867H509.883ZM505.91 131.555C505.893 135.861 503.748 139.852 498.738 142.33L498.123 141.451C502.254 139.412 504.504 136.23 504.785 132.486H498.809V131.555H505.91ZM518.602 132.855C518.602 134.965 520.271 136.793 522.486 137.549L521.941 138.41C520.166 137.804 518.742 136.529 518.092 134.895C517.433 136.74 515.912 138.164 514.066 138.85L513.504 137.953C515.754 137.18 517.512 135.193 517.529 132.873V131.977H513.873V131.045H522.205V131.977H518.602V132.855ZM525.58 129.867V133.945H527.971V134.877H525.58V139.271H524.473V129.867H525.58ZM520.641 139.729C523.805 139.729 525.703 140.748 525.703 142.506C525.703 144.299 523.805 145.318 520.641 145.318C517.477 145.318 515.543 144.299 515.561 142.506C515.543 140.748 517.477 139.729 520.641 139.729ZM520.641 140.643C518.197 140.643 516.633 141.363 516.65 142.506C516.633 143.701 518.197 144.422 520.641 144.422C523.084 144.422 524.631 143.701 524.631 142.506C524.631 141.363 523.084 140.643 520.641 140.643ZM541.014 134.455V136.441H547.57V137.373H533.385V136.441H539.924V134.455H541.014ZM546.27 130.377V131.273H541.154C541.172 133.128 544.169 134.367 546.744 134.596L546.357 135.457C543.914 135.185 541.312 134.165 540.486 132.434C539.643 134.165 537.023 135.185 534.58 135.457L534.211 134.596C536.751 134.367 539.766 133.128 539.783 131.273H534.703V130.377H546.27ZM546.234 139.588V140.502H534.738V139.588H539.924V138.023H541.031V139.588H546.234ZM540.469 141.363C543.457 141.381 545.145 142.066 545.145 143.402C545.145 144.773 543.457 145.459 540.469 145.477C537.463 145.459 535.811 144.773 535.811 143.402C535.811 142.066 537.463 141.381 540.469 141.363ZM540.469 142.172C538.236 142.189 536.918 142.611 536.936 143.402C536.918 144.211 538.236 144.668 540.469 144.668C542.701 144.668 544.02 144.211 544.02 143.402C544.02 142.611 542.701 142.189 540.469 142.172ZM553.09 131.098C555.357 131.098 556.957 133.189 556.957 136.459C556.957 139.729 555.357 141.82 553.09 141.82C550.822 141.82 549.24 139.729 549.258 136.459C549.24 133.189 550.822 131.098 553.09 131.098ZM553.09 132.082C551.455 132.082 550.295 133.875 550.295 136.459C550.295 139.061 551.455 140.836 553.09 140.836C554.76 140.836 555.885 139.061 555.902 136.459C555.885 133.875 554.76 132.082 553.09 132.082ZM560.895 129.867V136.178H563.566V137.127H560.895V145.371H559.787V129.867H560.895ZM576.451 129.867V136.354H579.123V137.303H576.451V145.371H575.344V129.867H576.451ZM573.691 132.416V133.348H564.428V132.416H568.559V130.025H569.666V132.416H573.691ZM569.139 134.771C571.318 134.771 572.883 136.213 572.883 138.287C572.883 140.361 571.318 141.803 569.139 141.803C566.959 141.803 565.377 140.361 565.395 138.287C565.377 136.213 566.959 134.771 569.139 134.771ZM569.139 135.703C567.592 135.721 566.449 136.811 566.449 138.287C566.449 139.764 567.592 140.854 569.139 140.836C570.686 140.854 571.828 139.764 571.828 138.287C571.828 136.811 570.686 135.721 569.139 135.703ZM592.588 134.701V135.633H582.041V130.43H583.131V134.701H592.588ZM594.24 137.883V138.797H580.055V137.883H594.24ZM592.676 144.035V144.984H581.971V140.484H583.061V144.035H592.676ZM605.314 134.244C605.297 137.057 607.424 139.904 609.604 140.924L608.918 141.803C607.169 140.924 605.499 138.999 604.77 136.705C604.058 139.113 602.405 141.161 600.639 142.084L599.918 141.152C602.098 140.115 604.207 137.162 604.207 134.244V131.256H605.314V134.244ZM612.697 129.867V145.389H611.59V129.867H612.697ZM627.604 129.867V134.701H629.994V135.65H627.604V141.293H626.479V129.867H627.604ZM623.42 131.08C623.42 135 620.484 137.971 616.072 139.395L615.598 138.498C619.377 137.285 621.943 134.947 622.225 132.012H616.213V131.08H623.42ZM628.359 144.07V145.002H617.988V140.115H619.096V144.07H628.359ZM644.285 129.867V145.371H643.213V137.109H640.699V144.545H639.662V130.236H640.699V136.178H643.213V129.867H644.285ZM637.518 131.783V132.715H632.807V140.467C635.188 140.467 636.691 140.37 638.449 139.992L638.572 140.941C636.709 141.346 635.162 141.416 632.666 141.434H631.699V131.783H637.518ZM659.156 134.701V135.633H648.609V130.43H649.699V134.701H659.156ZM660.809 137.883V138.797H646.623V137.883H660.809ZM659.244 144.035V144.984H648.539V140.484H649.629V144.035H659.244ZM679.318 129.867V141.328H678.211V135.176H674.73C674.484 137.136 672.885 138.463 670.793 138.463C668.473 138.463 666.785 136.898 666.803 134.666C666.785 132.434 668.473 130.887 670.793 130.887C672.911 130.887 674.528 132.24 674.748 134.244H678.211V129.867H679.318ZM679.775 144.07V145.002H669.475V140.15H670.582V144.07H679.775ZM670.793 131.871C669.105 131.889 667.857 133.066 667.857 134.666C667.857 136.283 669.105 137.496 670.793 137.496C672.445 137.496 673.693 136.283 673.693 134.666C673.693 133.066 672.445 131.889 670.793 131.871ZM695.297 129.867V145.371H694.225V129.867H695.297ZM692.168 130.271V144.527H691.113V136.459H688.318V135.527H691.113V130.271H692.168ZM686.543 134.35C686.525 137.092 687.879 139.781 689.971 140.994L689.285 141.838C687.721 140.889 686.552 139.131 686.016 137.039C685.462 139.289 684.258 141.196 682.658 142.189L681.955 141.363C684.064 140.098 685.471 137.25 685.471 134.35V132.697H682.324V131.766H689.531V132.697H686.543V134.35ZM710.396 129.867V141.275H709.289V129.867H710.396ZM710.906 144.07V145.002H700.5V140.098H701.607V144.07H710.906ZM702.064 130.992C704.367 130.992 706.072 132.539 706.072 134.754C706.072 136.986 704.367 138.551 702.064 138.533C699.762 138.551 698.039 136.986 698.057 134.754C698.039 132.539 699.762 130.992 702.064 130.992ZM702.064 131.959C700.377 131.959 699.129 133.154 699.129 134.754C699.129 136.371 700.377 137.549 702.064 137.549C703.734 137.549 705 136.371 705 134.754C705 133.154 703.734 131.959 702.064 131.959ZM725.145 129.867V136.283H727.764V137.232H725.145V145.371H724.037V129.867H725.145ZM721.172 131.555C721.154 135.861 719.01 139.852 714 142.33L713.385 141.451C717.516 139.412 719.766 136.23 720.047 132.486H714.07V131.555H721.172ZM742.969 142.365V143.314H728.766V142.365H732.387V138.059C731.024 137.373 730.207 136.257 730.207 134.859C730.207 132.469 732.527 130.922 735.814 130.904C739.119 130.922 741.439 132.469 741.439 134.859C741.439 136.239 740.64 137.347 739.312 138.023V142.365H742.969ZM735.814 131.836C733.178 131.818 731.262 133.049 731.262 134.859C731.262 136.635 733.178 137.883 735.814 137.865C738.451 137.883 740.385 136.635 740.385 134.859C740.385 133.049 738.451 131.818 735.814 131.836ZM733.477 142.365H738.205V138.445C737.493 138.656 736.685 138.762 735.814 138.762C734.962 138.762 734.171 138.656 733.477 138.463V142.365ZM746.836 140.062C746.854 138.041 747.504 137.338 748.717 136.547C749.613 135.984 750.123 135.299 750.123 134.332C750.123 133.031 749.104 132.17 747.82 132.17C746.625 132.17 745.553 132.943 745.482 134.455H744.217C744.27 132.398 745.834 131.098 747.82 131.098C749.912 131.098 751.336 132.486 751.336 134.385C751.336 135.668 750.738 136.564 749.578 137.32C748.453 138.041 748.066 138.674 748.049 140.062V140.361H746.836V140.062ZM747.486 144.088C746.959 144.088 746.537 143.666 746.537 143.156C746.537 142.629 746.959 142.207 747.486 142.207C747.996 142.207 748.418 142.629 748.418 143.156C748.418 143.666 747.996 144.088 747.486 144.088Z" fill="#65744B" fill-opacity="0.7"/>
<path d="M418.125 386V384.594L422.537 380.146C423.926 378.688 424.629 377.879 424.629 376.771C424.629 375.523 423.609 374.715 422.273 374.715C420.867 374.715 419.953 375.611 419.953 376.965H418.125C418.107 374.645 419.883 373.098 422.309 373.098C424.77 373.098 426.457 374.645 426.475 376.719C426.457 378.143 425.789 379.268 423.398 381.623L420.814 384.242V384.348H426.686V386H418.125ZM433.26 386.176C430.307 386.176 428.584 383.803 428.584 379.637C428.584 375.506 430.342 373.098 433.26 373.098C436.178 373.098 437.936 375.506 437.936 379.637C437.936 383.803 436.195 386.176 433.26 386.176ZM433.26 384.506C434.982 384.506 436.002 382.818 436.002 379.637C436.002 376.473 434.965 374.732 433.26 374.732C431.555 374.732 430.518 376.473 430.518 379.637C430.518 382.818 431.537 384.506 433.26 384.506ZM439.939 386V384.594L444.352 380.146C445.74 378.688 446.443 377.879 446.443 376.771C446.443 375.523 445.424 374.715 444.088 374.715C442.682 374.715 441.768 375.611 441.768 376.965H439.939C439.922 374.645 441.697 373.098 444.123 373.098C446.584 373.098 448.271 374.645 448.289 376.719C448.271 378.143 447.604 379.268 445.213 381.623L442.629 384.242V384.348H448.5V386H439.939ZM450.082 383.521V381.957L455.707 373.273H458.098V381.887H459.838V383.521H458.098V386H456.27V383.521H450.082ZM452.121 381.887H456.27V375.576H456.129L452.121 381.781V381.887ZM474.375 371.762V383.398H472.705V378.037H468.381V376.701H472.705V375.049H468.381V373.713H472.705V371.762H474.375ZM474.779 385.807V387.16H464.109V382.379H465.797V385.807H474.779ZM463.828 372.852V379.742C465.92 379.742 467.906 379.61 470.156 379.197L470.332 380.568C467.836 381.043 465.709 381.131 463.389 381.148H462.176V372.852H463.828ZM486.574 373.273V386H484.623V375.207H484.553L481.512 377.193V375.348L484.676 373.273H486.574ZM502.359 371.762V380.99H500.689V380.234H497.613V379.18H500.689V371.762H502.359ZM489.229 377.562C492.27 377.58 496.137 377.545 499.529 377.176L499.617 378.248C498.132 378.45 496.594 378.573 495.082 378.652V381.025H493.43V378.723C492.006 378.758 490.652 378.767 489.422 378.758L489.229 377.562ZM502.359 381.518V384.91H493.289V386.123H502.834V387.336H491.654V383.803H500.707V382.678H491.584V381.518H502.359ZM494.344 372.025C496.682 372.025 498.264 372.957 498.281 374.398C498.264 375.875 496.682 376.754 494.344 376.754C491.953 376.754 490.389 375.875 490.406 374.398C490.389 372.957 491.953 372.025 494.344 372.025ZM494.344 373.15C492.885 373.15 491.971 373.643 491.971 374.398C491.971 375.154 492.885 375.629 494.344 375.629C495.768 375.629 496.699 375.154 496.699 374.398C496.699 373.643 495.768 373.15 494.344 373.15ZM514.594 373.273V386H512.643V375.207H512.572L509.531 377.193V375.348L512.695 373.273H514.594ZM522.152 386.176C519.744 386.176 517.934 384.699 517.846 382.678H519.727C519.832 383.768 520.869 384.559 522.152 384.559C523.699 384.559 524.807 383.434 524.807 381.922C524.807 380.375 523.664 379.25 522.064 379.232C521.045 379.232 520.271 379.566 519.832 380.357H518.004L518.83 373.273H526.037V374.926H520.43L520.008 378.494H520.131C520.658 377.984 521.555 377.633 522.521 377.633C524.912 377.633 526.688 379.408 526.688 381.869C526.688 384.383 524.807 386.176 522.152 386.176ZM532.664 372.271C535.037 372.289 536.777 373.748 536.795 375.805C536.777 377.879 535.037 379.32 532.664 379.32C530.273 379.32 528.516 377.879 528.516 375.805C528.516 373.748 530.273 372.289 532.664 372.271ZM532.664 373.678C531.205 373.66 530.133 374.521 530.15 375.805C530.133 377.105 531.205 377.967 532.664 377.967C534.105 377.967 535.178 377.105 535.178 375.805C535.178 374.521 534.105 373.66 532.664 373.678ZM541.26 371.744V379.76H539.59V371.744H541.26ZM541.26 380.48V384.453H532.576V385.965H541.787V387.301H530.959V383.205H539.607V381.816H530.906V380.48H541.26ZM561.791 373.959V375.312H548.836V373.959H554.496V371.973H556.148V373.959H561.791ZM562.564 384.365V385.719H548.15V384.365H554.496V382.273C551.736 382.106 550.066 381.017 550.066 379.268C550.066 377.369 552.07 376.262 555.322 376.262C558.539 376.262 560.561 377.369 560.561 379.268C560.561 381.017 558.882 382.106 556.148 382.273V384.365H562.564ZM555.322 377.58C553.072 377.58 551.754 378.178 551.771 379.268C551.754 380.357 553.072 380.955 555.322 380.973C557.537 380.955 558.855 380.357 558.855 379.268C558.855 378.178 557.537 377.58 555.322 377.58Z" fill="#3A3A3B" fill-opacity="0.5"/>
<path d="M293.431 399.867V404.033H295.821V404.965H293.431V409.201H292.323V399.867H293.431ZM288.491 409.518C291.638 409.518 293.554 410.59 293.554 412.418C293.554 414.264 291.638 415.318 288.491 415.318C285.327 415.318 283.394 414.264 283.411 412.418C283.394 410.59 285.327 409.518 288.491 409.518ZM288.491 410.449C286.048 410.432 284.483 411.205 284.483 412.418C284.483 413.631 286.048 414.404 288.491 414.404C290.917 414.404 292.499 413.631 292.499 412.418C292.499 411.205 290.917 410.432 288.491 410.449ZM283.288 406.863C286.452 406.863 288.315 406.775 290.495 406.336L290.636 407.268C288.368 407.707 286.487 407.795 283.288 407.795H282.11V401.098H288.983V402.029H283.2V406.863H283.288ZM309.655 399.867V411.258H308.548V399.867H309.655ZM310.165 414.07V415.002H299.759V410.221H300.866V414.07H310.165ZM302.255 402.311C302.237 404.789 304.03 406.951 306.263 407.795L305.665 408.691C303.872 407.962 302.387 406.485 301.71 404.578C301.051 406.6 299.565 408.208 297.772 408.973L297.14 408.094C299.39 407.18 301.13 404.877 301.147 402.311V400.729H302.255V402.311ZM317.548 401.027C319.991 401.027 321.679 402.486 321.696 404.613C321.679 406.758 319.991 408.199 317.548 408.199C315.122 408.199 313.399 406.758 313.399 404.613C313.399 402.486 315.122 401.027 317.548 401.027ZM317.548 402.012C315.772 402.012 314.472 403.102 314.489 404.613C314.472 406.125 315.772 407.232 317.548 407.215C319.323 407.232 320.606 406.125 320.606 404.613C320.606 403.102 319.323 402.012 317.548 402.012ZM325.089 399.867V415.389H323.981V399.867H325.089ZM312.556 410.906C315.456 410.924 319.429 410.906 322.909 410.379L322.997 411.223C319.411 411.891 315.544 411.891 312.731 411.891L312.556 410.906ZM340.013 401.379C340.013 403.682 343.177 405.527 345.726 405.914L345.269 406.828C342.983 406.415 340.417 405.062 339.45 403.066C338.483 405.079 335.917 406.406 333.632 406.828L333.157 405.914C335.724 405.527 338.87 403.734 338.87 401.379V400.447H340.013V401.379ZM346.499 408.691V409.641H339.942V415.371H338.87V409.641H332.366V408.691H346.499ZM355.71 401.256V402.697H359.595V399.867H360.702V411.205H359.595V406.951H355.71V408.375H348.679V401.256H355.71ZM349.769 402.17V407.479H354.62V402.17H349.769ZM361.071 414.07V415.002H350.771V410.203H351.878V414.07H361.071ZM355.71 406.002H359.595V403.646H355.71V406.002ZM381.058 399.867V415.371H379.985V407.162H377.612V414.545H376.54V400.236H377.612V406.213H379.985V399.867H381.058ZM375.257 401.889V402.82H373.78V410.273C374.431 410.229 375.055 410.168 375.626 410.098L375.679 410.924C373.2 411.363 369.878 411.434 367.804 411.434L367.646 410.467L369.456 410.449V402.82H367.997V401.889H375.257ZM370.511 410.432C371.24 410.414 371.996 410.388 372.743 410.344V402.82H370.511V410.432ZM396.157 399.867V411.416H395.05V405.211H391.886V404.297H395.05V399.867H396.157ZM396.597 414.07V415.002H386.278V410.414H387.386V414.07H396.597ZM385.312 407.883C388.37 407.883 390.022 407.812 392.062 407.443L392.185 408.375C390.093 408.744 388.405 408.832 385.312 408.832H384.204V401.098H391.147V402.012H385.294V404.402H390.743V405.316H385.294V407.883H385.312ZM413.067 408.111V409.025H398.935V408.111H413.067ZM411.503 414.07V415.002H400.798V410.502H401.923V414.07H411.503ZM405.983 400.412C409.306 400.412 411.415 401.537 411.415 403.471C411.415 405.387 409.306 406.529 405.983 406.529C402.644 406.529 400.552 405.387 400.552 403.471C400.552 401.537 402.644 400.412 405.983 400.412ZM405.983 401.326C403.382 401.344 401.677 402.17 401.694 403.471C401.677 404.789 403.382 405.598 405.983 405.598C408.585 405.598 410.29 404.789 410.29 403.471C410.29 402.17 408.585 401.344 405.983 401.326ZM422.964 401.098C425.082 401.098 426.594 402.952 426.778 405.896H430.522V399.867H431.612V415.389H430.522V406.811H426.796C426.664 409.878 425.135 411.82 422.964 411.82C420.696 411.82 419.114 409.729 419.132 406.459C419.114 403.189 420.696 401.098 422.964 401.098ZM422.964 402.082C421.312 402.082 420.187 403.875 420.187 406.459C420.187 409.061 421.312 410.836 422.964 410.836C424.599 410.836 425.741 409.061 425.741 406.459C425.741 403.875 424.599 402.082 422.964 402.082ZM447.731 414.07V415.002H437.062V410.238H438.169V414.07H447.731ZM447.327 399.867V411.17H446.237V405.123H443.126V404.191H446.237V399.867H447.327ZM438.767 401.186V402.117H435.972V407.619C436.754 407.619 437.817 407.54 438.978 407.268L439.101 408.199C437.589 408.551 436.376 408.551 435.515 408.551H434.882V401.186H438.767ZM443.97 401.186V402.117H440.771V407.637C442.124 407.628 443.275 407.558 444.638 407.25L444.761 408.182C443.214 408.516 441.983 408.551 440.419 408.551H439.663V401.186H443.97ZM461.882 399.867V406.283H464.501V407.232H461.882V415.371H460.774V399.867H461.882ZM457.909 401.555C457.892 405.861 455.747 409.852 450.737 412.33L450.122 411.451C454.253 409.412 456.503 406.23 456.784 402.486H450.808V401.555H457.909ZM479.706 412.365V413.314H465.503V412.365H469.124V408.059C467.762 407.373 466.944 406.257 466.944 404.859C466.944 402.469 469.265 400.922 472.552 400.904C475.856 400.922 478.177 402.469 478.177 404.859C478.177 406.239 477.377 407.347 476.05 408.023V412.365H479.706ZM472.552 401.836C469.915 401.818 467.999 403.049 467.999 404.859C467.999 406.635 469.915 407.883 472.552 407.865C475.188 407.883 477.122 406.635 477.122 404.859C477.122 403.049 475.188 401.818 472.552 401.836ZM470.214 412.365H474.942V408.445C474.23 408.656 473.422 408.762 472.552 408.762C471.699 408.762 470.908 408.656 470.214 408.463V412.365ZM483.573 410.062C483.591 408.041 484.241 407.338 485.454 406.547C486.351 405.984 486.86 405.299 486.86 404.332C486.86 403.031 485.841 402.17 484.558 402.17C483.362 402.17 482.29 402.943 482.22 404.455H480.954C481.007 402.398 482.571 401.098 484.558 401.098C486.649 401.098 488.073 402.486 488.073 404.385C488.073 405.668 487.476 406.564 486.315 407.32C485.19 408.041 484.804 408.674 484.786 410.062V410.361H483.573V410.062ZM484.224 414.088C483.696 414.088 483.274 413.666 483.274 413.156C483.274 412.629 483.696 412.207 484.224 412.207C484.733 412.207 485.155 412.629 485.155 413.156C485.155 413.666 484.733 414.088 484.224 414.088ZM507.989 407.584V408.498H501.468V410.221C504.474 410.335 506.231 411.214 506.231 412.787C506.231 414.422 504.263 415.318 500.923 415.318C497.565 415.318 495.579 414.422 495.579 412.787C495.579 411.214 497.354 410.335 500.378 410.221V408.498H493.856V407.584H507.989ZM501.468 399.797V401.414H506.513V402.328H501.521C501.573 404.288 504.368 405.492 507.093 405.773L506.741 406.652C504.289 406.371 501.828 405.422 500.923 403.717C500.009 405.422 497.548 406.371 495.122 406.652L494.753 405.773C497.46 405.492 500.255 404.288 500.325 402.328H495.351V401.414H500.378V399.797H501.468ZM500.923 411.082C498.304 411.082 496.704 411.715 496.704 412.787C496.704 413.842 498.304 414.457 500.923 414.439C503.524 414.457 505.124 413.842 505.124 412.787C505.124 411.715 503.524 411.082 500.923 411.082ZM523.581 408.146V409.078H517.112V412.277H516.022V409.078H509.396V408.146H523.581ZM521.999 414.07V415.002H511.259V410.783H512.366V414.07H521.999ZM512.419 400.359V402.469H520.575V400.359H521.683V406.494H511.312V400.359H512.419ZM512.419 405.562H520.575V403.348H512.419V405.562ZM537.046 399.867V405.105H539.437V406.055H537.046V411.504H535.938V399.867H537.046ZM534.269 401.854V402.785H525.022V401.854H529.101V399.885H530.19V401.854H534.269ZM529.646 403.734C531.843 403.734 533.337 404.859 533.337 406.6C533.337 408.34 531.843 409.447 529.646 409.447C527.413 409.447 525.937 408.34 525.937 406.6C525.937 404.859 527.413 403.734 529.646 403.734ZM529.646 404.631C528.046 404.631 526.974 405.422 526.991 406.6C526.974 407.76 528.046 408.551 529.646 408.533C531.228 408.551 532.282 407.76 532.3 406.6C532.282 405.422 531.228 404.631 529.646 404.631ZM537.802 414.07V415.002H527.448V410.555H528.538V414.07H537.802ZM552.515 401.379C552.515 403.682 555.679 405.527 558.228 405.914L557.771 406.828C555.485 406.415 552.919 405.062 551.952 403.066C550.985 405.079 548.419 406.406 546.134 406.828L545.659 405.914C548.226 405.527 551.372 403.734 551.372 401.379V400.447H552.515V401.379ZM559.001 408.691V409.641H552.444V415.371H551.372V409.641H544.868V408.691H559.001ZM568.212 401.256V402.697H572.097V399.867H573.204V411.205H572.097V406.951H568.212V408.375H561.181V401.256H568.212ZM562.271 402.17V407.479H567.122V402.17H562.271ZM573.573 414.07V415.002H563.272V410.203H564.38V414.07H573.573ZM568.212 406.002H572.097V403.646H568.212V406.002ZM583.03 400.148C586.44 400.148 588.462 401.098 588.462 402.838C588.462 404.596 586.44 405.562 583.03 405.562C579.62 405.562 577.599 404.596 577.599 402.838C577.599 401.098 579.62 400.148 583.03 400.148ZM583.03 401.01C580.376 401.01 578.741 401.713 578.741 402.838C578.741 404.016 580.376 404.701 583.03 404.701C585.702 404.701 587.337 404.016 587.337 402.838C587.337 401.713 585.702 401.01 583.03 401.01ZM590.114 406.723V407.637H575.981V406.723H590.114ZM588.251 409.113V412.436H578.847V414.264H588.743V415.178H577.774V411.574H587.179V409.992H577.722V409.113H588.251ZM601.593 402.715C601.593 404.385 603.28 405.773 605.442 406.283L604.968 407.18C603.184 406.705 601.725 405.703 601.065 404.367C600.424 405.809 598.947 406.898 597.128 407.391L596.636 406.494C598.798 405.967 600.485 404.473 600.503 402.715V402.609H596.917V401.695H600.485V399.902H601.593V401.695H605.179V402.609H601.593V402.715ZM608.589 399.867V415.389H607.499V399.867H608.589ZM595.827 408.621C598.833 408.621 602.806 408.604 606.286 408.129L606.374 408.955C604.818 409.21 603.21 409.359 601.646 409.447V414.914H600.538V409.5C598.903 409.579 597.348 409.588 595.985 409.588L595.827 408.621ZM623.372 399.867V406.354H626.044V407.303H623.372V415.371H622.265V399.867H623.372ZM620.612 402.416V403.348H611.349V402.416H615.479V400.025H616.587V402.416H620.612ZM616.06 404.771C618.239 404.771 619.804 406.213 619.804 408.287C619.804 410.361 618.239 411.803 616.06 411.803C613.88 411.803 612.298 410.361 612.315 408.287C612.298 406.213 613.88 404.771 616.06 404.771ZM616.06 405.703C614.513 405.721 613.37 406.811 613.37 408.287C613.37 409.764 614.513 410.854 616.06 410.836C617.606 410.854 618.749 409.764 618.749 408.287C618.749 406.811 617.606 405.721 616.06 405.703ZM639.315 401.502V403.066C639.298 404.965 639.298 407.074 638.753 410.133L637.628 409.992C638.19 407.074 638.19 404.93 638.208 403.066V402.434H628.522V401.502H639.315ZM641.126 412.119V413.068H626.993V412.119H632.688V406.512H633.778V412.119H641.126ZM652.007 410.414C652.007 411.829 652.824 413.35 654.362 414.176C655.9 413.262 656.753 411.636 656.753 410.414V409.447H657.843V410.414C657.825 412.014 659.108 413.631 661.077 414.316L660.515 415.16C658.95 414.589 657.808 413.464 657.28 412.137C656.814 413.411 655.848 414.659 654.397 415.283C652.877 414.694 651.893 413.517 651.444 412.189C650.899 413.455 649.783 414.58 648.28 415.16L647.7 414.316C649.651 413.596 650.935 411.891 650.935 410.414V409.447H652.007V410.414ZM659.636 399.867V408.762H658.528V399.867H659.636ZM651.304 400.816C653.642 400.816 655.312 402.258 655.312 404.402C655.312 406.529 653.642 407.971 651.304 407.971C648.966 407.971 647.278 406.529 647.296 404.402C647.278 402.258 648.966 400.816 651.304 400.816ZM651.304 401.766C649.599 401.766 648.368 402.873 648.368 404.402C648.368 405.932 649.599 407.039 651.304 407.039C653.009 407.039 654.239 405.932 654.239 404.402C654.239 402.873 653.009 401.766 651.304 401.766ZM677.003 406.16V407.109H674.384V415.371H673.276V399.867H674.384V406.16H677.003ZM664.224 401.396V410.432H664.329C666.667 410.449 669.005 410.273 671.642 409.711L671.782 410.678C669.093 411.223 666.72 411.381 664.329 411.381H663.134V401.396H664.224ZM692.208 412.365V413.314H678.005V412.365H681.626V408.059C680.264 407.373 679.446 406.257 679.446 404.859C679.446 402.469 681.767 400.922 685.054 400.904C688.358 400.922 690.679 402.469 690.679 404.859C690.679 406.239 689.879 407.347 688.552 408.023V412.365H692.208ZM685.054 401.836C682.417 401.818 680.501 403.049 680.501 404.859C680.501 406.635 682.417 407.883 685.054 407.865C687.69 407.883 689.624 406.635 689.624 404.859C689.624 403.049 687.69 401.818 685.054 401.836ZM682.716 412.365H687.444V408.445C686.732 408.656 685.924 408.762 685.054 408.762C684.201 408.762 683.41 408.656 682.716 408.463V412.365ZM696.075 410.062C696.093 408.041 696.743 407.338 697.956 406.547C698.853 405.984 699.362 405.299 699.362 404.332C699.362 403.031 698.343 402.17 697.06 402.17C695.864 402.17 694.792 402.943 694.722 404.455H693.456C693.509 402.398 695.073 401.098 697.06 401.098C699.151 401.098 700.575 402.486 700.575 404.385C700.575 405.668 699.978 406.564 698.817 407.32C697.692 408.041 697.306 408.674 697.288 410.062V410.361H696.075V410.062ZM696.726 414.088C696.198 414.088 695.776 413.666 695.776 413.156C695.776 412.629 696.198 412.207 696.726 412.207C697.235 412.207 697.657 412.629 697.657 413.156C697.657 413.666 697.235 414.088 696.726 414.088Z" fill="#65744B" fill-opacity="0.7"/>
</svg>
