<svg width="222" height="292" viewBox="0 0 222 292" fill="none" xmlns="http://www.w3.org/2000/svg">
<g filter="url(#filter0_dd_942_39)">
<path d="M11 17C11 11.4771 15.4772 7 21 7H201C206.523 7 211 11.4772 211 17V267C211 272.523 206.523 277 201 277H21C15.4772 277 11 272.523 11 267V17Z" fill="#F9F9F1"/>
</g>
<path d="M107 79L107 45" stroke="#4F4A36" stroke-linecap="round"/>
<path d="M143.078 48.1016H144.049V55.2246C144.049 57.1523 142.941 58.1367 141.342 58.1367C139.783 58.1367 138.635 57.2207 138.635 55.7988H139.592C139.592 56.6738 140.33 57.2617 141.342 57.2617C142.381 57.2617 143.078 56.6191 143.078 55.2246V48.1016ZM150.939 55.1289V50.5762H151.869V58H150.939V56.7695H150.871C150.529 57.5215 149.764 58.0957 148.67 58.0957C147.248 58.0957 146.223 57.1387 146.223 55.375V50.5762H147.166V55.3066C147.166 56.4414 147.891 57.1934 148.943 57.1934C149.914 57.1934 150.939 56.4824 150.939 55.1289ZM154.809 53.3926V58H153.865V50.5762H154.768V51.752H154.85C155.205 50.9863 155.943 50.4805 157.037 50.4805C158.541 50.4805 159.553 51.4375 159.553 53.2012V58H158.623V53.2695C158.623 52.0664 157.912 51.3281 156.791 51.3281C155.643 51.3281 154.809 52.1074 154.809 53.3926ZM164.584 58.1504C162.492 58.1504 161.18 56.5918 161.18 54.3359C161.18 52.0801 162.52 50.4668 164.447 50.4668C166.061 50.4668 167.619 51.6152 167.619 54.1309V54.5684H162.109C162.15 56.2432 163.101 57.3164 164.584 57.3164C165.609 57.3164 166.211 56.7832 166.471 56.3184H167.469C167.141 57.3438 166.088 58.1504 164.584 58.1504ZM162.123 53.7617H166.662C166.662 52.3672 165.76 51.3145 164.461 51.3145C163.114 51.3145 162.198 52.4219 162.123 53.7617ZM137.685 75V74.2891L141.034 70.666C142.306 69.2852 142.825 68.5879 142.839 67.6582C142.825 66.5645 141.937 65.8262 140.761 65.8262C139.503 65.8262 138.696 66.6465 138.696 67.8086H137.767C137.767 66.1406 139.052 64.9648 140.788 64.9648C142.511 64.9648 143.741 66.1406 143.741 67.6582C143.741 68.7656 143.235 69.5996 141.526 71.4043L139.065 74.0566V74.125H144.042V75H137.685ZM149.046 75.1367C146.927 75.1367 145.696 73.2637 145.696 70.0508C145.696 66.8516 146.94 64.9648 149.046 64.9648C151.138 64.9648 152.382 66.8516 152.382 70.0508C152.382 73.2637 151.151 75.1367 149.046 75.1367ZM149.046 74.2617C150.55 74.2617 151.438 72.7305 151.438 70.0508C151.438 67.3711 150.536 65.8262 149.046 65.8262C147.542 65.8262 146.653 67.3711 146.653 70.0508C146.653 72.7305 147.542 74.2617 149.046 74.2617ZM154.091 75V74.2891L157.44 70.666C158.712 69.2852 159.231 68.5879 159.245 67.6582C159.231 66.5645 158.343 65.8262 157.167 65.8262C155.909 65.8262 155.103 66.6465 155.103 67.8086H154.173C154.173 66.1406 155.458 64.9648 157.194 64.9648C158.917 64.9648 160.147 66.1406 160.147 67.6582C160.147 68.7656 159.642 69.5996 157.933 71.4043L155.472 74.0566V74.125H160.448V75H154.091ZM161.884 72.8945V72.1016L166.396 65.1016H167.571V72.0332H168.925V72.8945H167.571V75H166.642V72.8945H161.884ZM162.964 72.0332H166.642V66.4004H166.546L162.964 71.9648V72.0332Z" fill="#3A3A3B"/>
<path d="M43.625 76V72.875L53.4297 62.9922C56.5156 59.75 58.0781 57.9531 58.0781 55.4922C58.0781 52.7188 55.8125 50.9219 52.8438 50.9219C49.7188 50.9219 47.6875 52.9141 47.6875 55.9219H43.625C43.5859 50.7656 47.5312 47.3281 52.9219 47.3281C58.3906 47.3281 62.1406 50.7656 62.1797 55.375C62.1406 58.5391 60.6562 61.0391 55.3438 66.2734L49.6016 72.0938V72.3281H62.6484V76H43.625ZM77.4531 76.3906C71.5938 76.3906 67.4141 73.2266 67.2578 68.6172H71.6328C71.7891 71.1172 74.25 72.6797 77.4141 72.6797C80.8125 72.6797 83.3125 70.8047 83.3125 68.0703C83.3125 65.2969 80.9688 63.2656 76.9453 63.2656H74.5234V59.75H76.9453C80.1484 59.75 82.4141 57.9531 82.4141 55.2578C82.4141 52.6797 80.5 50.9219 77.4922 50.9219C74.6406 50.9219 72.1406 52.4844 72.0234 55.0625H67.8828C68 50.4531 72.2578 47.3281 77.5312 47.3281C83.0781 47.3281 86.5938 50.8438 86.5547 55.0234C86.5938 58.2266 84.6016 60.5703 81.5547 61.3125V61.5078C85.4219 62.0547 87.6484 64.6328 87.6484 68.2266C87.6484 72.9531 83.3125 76.3906 77.4531 76.3906Z" fill="#3A3A3B"/>
<defs>
<filter id="filter0_dd_942_39" x="0" y="0" width="222" height="292" filterUnits="userSpaceOnUse" color-interpolation-filters="sRGB">
<feFlood flood-opacity="0" result="BackgroundImageFix"/>
<feColorMatrix in="SourceAlpha" type="matrix" values="0 0 0 0 0 0 0 0 0 0 0 0 0 0 0 0 0 0 127 0" result="hardAlpha"/>
<feOffset dy="1"/>
<feGaussianBlur stdDeviation="1.5"/>
<feColorMatrix type="matrix" values="0 0 0 0 0.45098 0 0 0 0 0.454902 0 0 0 0 0.435294 0 0 0 0.3 0"/>
<feBlend mode="normal" in2="BackgroundImageFix" result="effect1_dropShadow_942_39"/>
<feColorMatrix in="SourceAlpha" type="matrix" values="0 0 0 0 0 0 0 0 0 0 0 0 0 0 0 0 0 0 127 0" result="hardAlpha"/>
<feMorphology radius="3" operator="dilate" in="SourceAlpha" result="effect2_dropShadow_942_39"/>
<feOffset dy="4"/>
<feGaussianBlur stdDeviation="4"/>
<feColorMatrix type="matrix" values="0 0 0 0 0.45098 0 0 0 0 0.454902 0 0 0 0 0.435294 0 0 0 0.15 0"/>
<feBlend mode="normal" in2="effect1_dropShadow_942_39" result="effect2_dropShadow_942_39"/>
<feBlend mode="normal" in="SourceGraphic" in2="effect2_dropShadow_942_39" result="shape"/>
</filter>
</defs>
</svg>
