<svg width="222" height="292" viewBox="0 0 222 292" fill="none" xmlns="http://www.w3.org/2000/svg">
<g filter="url(#filter0_dd_942_36)">
<path d="M11 17C11 11.4771 15.4772 7 21 7H201C206.523 7 211 11.4772 211 17V267C211 272.523 206.523 277 201 277H21C15.4772 277 11 272.523 11 267V17Z" fill="#F9F9F1"/>
</g>
<path d="M107 79L107 45" stroke="#4F4A36" stroke-linecap="round"/>
<path d="M125.243 58V48.1016H131.026V48.9766H126.214V52.6133H130.575V53.4746H126.214V58H125.243ZM135.306 58.1504C133.214 58.1504 131.901 56.5918 131.901 54.3359C131.901 52.0801 133.241 50.4668 135.169 50.4668C136.782 50.4668 138.341 51.6152 138.341 54.1309V54.5684H132.831C132.872 56.2432 133.822 57.3164 135.306 57.3164C136.331 57.3164 136.933 56.7832 137.192 56.3184H138.19C137.862 57.3438 136.81 58.1504 135.306 58.1504ZM132.845 53.7617H137.384C137.384 52.3672 136.481 51.3145 135.183 51.3145C133.836 51.3145 132.92 52.4219 132.845 53.7617ZM140.132 58V48.1016H141.062V51.957H141.144C141.431 51.3281 142.019 50.4668 143.386 50.4668C145.218 50.4668 146.476 51.998 146.476 54.3086C146.476 56.6191 145.231 58.1504 143.399 58.1504C142.046 58.1504 141.444 57.3027 141.144 56.6602H141.034V58H140.132ZM141.048 54.2949C141.048 56.0586 141.868 57.3164 143.276 57.3164C144.739 57.3164 145.532 55.9902 145.532 54.2949C145.532 52.6133 144.753 51.3145 143.276 51.3145C141.854 51.3145 141.048 52.5449 141.048 54.2949ZM148.103 58V50.5762H149.005V51.7246H149.073C149.374 50.9727 150.167 50.4668 151.083 50.4668C151.233 50.4668 151.452 50.4668 151.562 50.4805V51.4238C151.479 51.4102 151.261 51.3691 151.015 51.3691C149.88 51.3691 149.046 52.1484 149.046 53.2285V58H148.103ZM157.495 55.1289V50.5762H158.425V58H157.495V56.7695H157.427C157.085 57.5215 156.319 58.0957 155.226 58.0957C153.804 58.0957 152.778 57.1387 152.778 55.375V50.5762H153.722V55.3066C153.722 56.4414 154.446 57.1934 155.499 57.1934C156.47 57.1934 157.495 56.4824 157.495 55.1289ZM160.065 55.9219C160.065 54.418 161.282 53.8438 162.8 53.7207C163.292 53.6865 164.495 53.6182 164.851 53.5977V52.9004C164.851 51.9023 164.208 51.3008 163.046 51.3008C162.075 51.3008 161.419 51.752 161.241 52.4219H160.271C160.421 51.2461 161.556 50.4668 163.101 50.4668C164.208 50.4668 165.78 50.9453 165.78 52.9824V58H164.851V56.8516H164.796C164.495 57.4941 163.757 58.1641 162.513 58.1641C161.159 58.1641 160.065 57.3574 160.065 55.9219ZM160.995 55.9629C160.995 56.8379 161.692 57.3301 162.649 57.3301C164.017 57.3301 164.851 56.3457 164.851 55.1699V54.377L162.937 54.5137C161.624 54.6094 160.995 55.1152 160.995 55.9629ZM167.79 58V50.5762H168.692V51.7246H168.761C169.062 50.9727 169.854 50.4668 170.771 50.4668C170.921 50.4668 171.14 50.4668 171.249 50.4805V51.4238C171.167 51.4102 170.948 51.3691 170.702 51.3691C169.567 51.3691 168.733 52.1484 168.733 53.2285V58H167.79ZM173.286 60.7891C173.095 60.7891 172.89 60.7754 172.767 60.7617L172.78 59.9277L173.231 59.9414C173.71 59.9414 174.188 59.873 174.585 58.793L174.845 58.0684L172.11 50.5762H173.122L175.282 56.7969H175.351L177.524 50.5762H178.522L175.392 59.1484C174.981 60.2422 174.298 60.7891 173.286 60.7891ZM137.685 75V74.2891L141.034 70.666C142.306 69.2852 142.825 68.5879 142.839 67.6582C142.825 66.5645 141.937 65.8262 140.761 65.8262C139.503 65.8262 138.696 66.6465 138.696 67.8086H137.767C137.767 66.1406 139.052 64.9648 140.788 64.9648C142.511 64.9648 143.741 66.1406 143.741 67.6582C143.741 68.7656 143.235 69.5996 141.526 71.4043L139.065 74.0566V74.125H144.042V75H137.685ZM149.046 75.1367C146.927 75.1367 145.696 73.2637 145.696 70.0508C145.696 66.8516 146.94 64.9648 149.046 64.9648C151.138 64.9648 152.382 66.8516 152.382 70.0508C152.382 73.2637 151.151 75.1367 149.046 75.1367ZM149.046 74.2617C150.55 74.2617 151.438 72.7305 151.438 70.0508C151.438 67.3711 150.536 65.8262 149.046 65.8262C147.542 65.8262 146.653 67.3711 146.653 70.0508C146.653 72.7305 147.542 74.2617 149.046 74.2617ZM154.091 75V74.2891L157.44 70.666C158.712 69.2852 159.231 68.5879 159.245 67.6582C159.231 66.5645 158.343 65.8262 157.167 65.8262C155.909 65.8262 155.103 66.6465 155.103 67.8086H154.173C154.173 66.1406 155.458 64.9648 157.194 64.9648C158.917 64.9648 160.147 66.1406 160.147 67.6582C160.147 68.7656 159.642 69.5996 157.933 71.4043L155.472 74.0566V74.125H160.448V75H154.091ZM161.884 72.8945V72.1016L166.396 65.1016H167.571V72.0332H168.925V72.8945H167.571V75H166.642V72.8945H161.884ZM162.964 72.0332H166.642V66.4004H166.546L162.964 71.9648V72.0332Z" fill="#3A3A3B"/>
<path d="M57.3164 47.7188V76H52.9805V52.0156H52.8242L46.0664 56.4297V52.3281L53.0977 47.7188H57.3164ZM74.7383 76.3906C69.5039 76.3516 64.0352 73.2656 64.0352 62.7969C64.0352 52.9531 68.293 47.3281 75.0898 47.3281C80.2852 47.3281 83.918 50.5703 84.582 55.0625H80.3242C79.7773 52.7578 77.9414 51.0781 75.0898 51.0781C70.7148 51.0781 68.1758 54.9062 68.1758 61.2734H68.4883C70.0117 58.8906 72.668 57.4453 75.7539 57.4453C80.793 57.4453 84.8555 61.3125 84.8555 66.7422C84.8555 72.2109 80.832 76.4297 74.7383 76.3906ZM74.6992 72.7969C78.1367 72.7969 80.6758 70.1406 80.6758 66.8203C80.6758 63.5781 78.2148 60.9609 74.8164 60.9609C71.3398 60.9609 68.7227 63.6953 68.6836 66.8594C68.7227 69.9844 71.2227 72.7969 74.6992 72.7969Z" fill="#3A3A3B"/>
<defs>
<filter id="filter0_dd_942_36" x="0" y="0" width="222" height="292" filterUnits="userSpaceOnUse" color-interpolation-filters="sRGB">
<feFlood flood-opacity="0" result="BackgroundImageFix"/>
<feColorMatrix in="SourceAlpha" type="matrix" values="0 0 0 0 0 0 0 0 0 0 0 0 0 0 0 0 0 0 127 0" result="hardAlpha"/>
<feOffset dy="1"/>
<feGaussianBlur stdDeviation="1.5"/>
<feColorMatrix type="matrix" values="0 0 0 0 0.45098 0 0 0 0 0.454902 0 0 0 0 0.435294 0 0 0 0.3 0"/>
<feBlend mode="normal" in2="BackgroundImageFix" result="effect1_dropShadow_942_36"/>
<feColorMatrix in="SourceAlpha" type="matrix" values="0 0 0 0 0 0 0 0 0 0 0 0 0 0 0 0 0 0 127 0" result="hardAlpha"/>
<feMorphology radius="3" operator="dilate" in="SourceAlpha" result="effect2_dropShadow_942_36"/>
<feOffset dy="4"/>
<feGaussianBlur stdDeviation="4"/>
<feColorMatrix type="matrix" values="0 0 0 0 0.45098 0 0 0 0 0.454902 0 0 0 0 0.435294 0 0 0 0.15 0"/>
<feBlend mode="normal" in2="effect1_dropShadow_942_36" result="effect2_dropShadow_942_36"/>
<feBlend mode="normal" in="SourceGraphic" in2="effect2_dropShadow_942_36" result="shape"/>
</filter>
</defs>
</svg>
