<svg width="222" height="292" viewBox="0 0 222 292" fill="none" xmlns="http://www.w3.org/2000/svg">
<g filter="url(#filter0_dd_942_38)">
<path d="M11 17C11 11.4771 15.4772 7 21 7H201C206.523 7 211 11.4772 211 17V267C211 272.523 206.523 277 201 277H21C15.4772 277 11 272.523 11 267V17Z" fill="#F9F9F1"/>
</g>
<path d="M107 79L107 45" stroke="#4F4A36" stroke-linecap="round"/>
<path d="M140.822 58H139.797L143.393 48.1016H144.445L148.041 58H147.016L145.977 55.0605H141.861L140.822 58ZM142.176 54.1992H145.676L143.953 49.3594H143.885L142.176 54.1992ZM149.299 60.7891V50.5762H150.201V51.957H150.311C150.611 51.3281 151.199 50.4668 152.566 50.4668C154.398 50.4668 155.643 51.998 155.643 54.3086C155.643 56.6191 154.398 58.1504 152.58 58.1504C151.227 58.1504 150.611 57.3027 150.311 56.6602H150.242V60.7891H149.299ZM150.229 54.2949C150.229 56.0586 151.035 57.3164 152.457 57.3164C153.906 57.3164 154.713 55.9902 154.713 54.2949C154.713 52.6133 153.92 51.3145 152.457 51.3145C151.021 51.3145 150.229 52.5449 150.229 54.2949ZM157.27 58V50.5762H158.172V51.7246H158.24C158.541 50.9727 159.334 50.4668 160.25 50.4668C160.4 50.4668 160.619 50.4668 160.729 50.4805V51.4238C160.646 51.4102 160.428 51.3691 160.182 51.3691C159.047 51.3691 158.213 52.1484 158.213 53.2285V58H157.27ZM161.959 58V50.5762H162.889V58H161.959ZM162.438 49.3047C162.068 49.3047 161.754 49.0176 161.754 48.6621C161.754 48.3066 162.068 48.0059 162.438 48.0059C162.807 48.0059 163.121 48.3066 163.121 48.6621C163.121 49.0176 162.807 49.3047 162.438 49.3047ZM165.842 48.1016V58H164.898V48.1016H165.842ZM137.685 75V74.2891L141.034 70.666C142.306 69.2852 142.825 68.5879 142.839 67.6582C142.825 66.5645 141.937 65.8262 140.761 65.8262C139.503 65.8262 138.696 66.6465 138.696 67.8086H137.767C137.767 66.1406 139.052 64.9648 140.788 64.9648C142.511 64.9648 143.741 66.1406 143.741 67.6582C143.741 68.7656 143.235 69.5996 141.526 71.4043L139.065 74.0566V74.125H144.042V75H137.685ZM149.046 75.1367C146.927 75.1367 145.696 73.2637 145.696 70.0508C145.696 66.8516 146.94 64.9648 149.046 64.9648C151.138 64.9648 152.382 66.8516 152.382 70.0508C152.382 73.2637 151.151 75.1367 149.046 75.1367ZM149.046 74.2617C150.55 74.2617 151.438 72.7305 151.438 70.0508C151.438 67.3711 150.536 65.8262 149.046 65.8262C147.542 65.8262 146.653 67.3711 146.653 70.0508C146.653 72.7305 147.542 74.2617 149.046 74.2617ZM154.091 75V74.2891L157.44 70.666C158.712 69.2852 159.231 68.5879 159.245 67.6582C159.231 66.5645 158.343 65.8262 157.167 65.8262C155.909 65.8262 155.103 66.6465 155.103 67.8086H154.173C154.173 66.1406 155.458 64.9648 157.194 64.9648C158.917 64.9648 160.147 66.1406 160.147 67.6582C160.147 68.7656 159.642 69.5996 157.933 71.4043L155.472 74.0566V74.125H160.448V75H154.091ZM161.884 72.8945V72.1016L166.396 65.1016H167.571V72.0332H168.925V72.8945H167.571V75H166.642V72.8945H161.884ZM162.964 72.0332H166.642V66.4004H166.546L162.964 71.9648V72.0332Z" fill="#3A3A3B"/>
<path d="M52.5391 76.3906C45.9766 76.3906 42.1484 71.1172 42.1484 61.8594C42.1484 52.6797 46.0547 47.3281 52.5391 47.3281C59.0234 47.3281 62.9297 52.6797 62.9297 61.8594C62.9297 71.1172 59.0625 76.3906 52.5391 76.3906ZM52.5391 72.6797C56.3672 72.6797 58.6328 68.9297 58.6328 61.8594C58.6328 54.8281 56.3281 50.9609 52.5391 50.9609C48.75 50.9609 46.4453 54.8281 46.4453 61.8594C46.4453 68.9297 48.7109 72.6797 52.5391 72.6797ZM77.1094 47.3281C82.3047 47.3672 87.7734 50.4922 87.7734 60.8438C87.7734 70.7656 83.5156 76.3906 76.7188 76.3906C71.5234 76.3906 67.8516 73.1875 67.1875 68.5781H71.4453C72.0312 70.9609 73.8672 72.6406 76.7188 72.6406C81.0938 72.6406 83.6328 68.8125 83.6719 62.3672H83.3203C81.7969 64.75 79.1406 66.1953 76.0938 66.1953C71.0156 66.1953 66.9531 62.3281 66.9531 56.8984C66.9531 51.5078 70.9766 47.2891 77.1094 47.3281ZM77.1094 50.9219C73.6719 50.9219 71.1328 53.5781 71.1328 56.8203C71.1328 60.1016 73.5938 62.6797 77.0312 62.6797C80.4297 62.6797 83.0859 59.9062 83.0859 56.7812C83.0859 53.7344 80.5859 50.9219 77.1094 50.9219Z" fill="#3A3A3B"/>
<defs>
<filter id="filter0_dd_942_38" x="0" y="0" width="222" height="292" filterUnits="userSpaceOnUse" color-interpolation-filters="sRGB">
<feFlood flood-opacity="0" result="BackgroundImageFix"/>
<feColorMatrix in="SourceAlpha" type="matrix" values="0 0 0 0 0 0 0 0 0 0 0 0 0 0 0 0 0 0 127 0" result="hardAlpha"/>
<feOffset dy="1"/>
<feGaussianBlur stdDeviation="1.5"/>
<feColorMatrix type="matrix" values="0 0 0 0 0.45098 0 0 0 0 0.454902 0 0 0 0 0.435294 0 0 0 0.3 0"/>
<feBlend mode="normal" in2="BackgroundImageFix" result="effect1_dropShadow_942_38"/>
<feColorMatrix in="SourceAlpha" type="matrix" values="0 0 0 0 0 0 0 0 0 0 0 0 0 0 0 0 0 0 127 0" result="hardAlpha"/>
<feMorphology radius="3" operator="dilate" in="SourceAlpha" result="effect2_dropShadow_942_38"/>
<feOffset dy="4"/>
<feGaussianBlur stdDeviation="4"/>
<feColorMatrix type="matrix" values="0 0 0 0 0.45098 0 0 0 0 0.454902 0 0 0 0 0.435294 0 0 0 0.15 0"/>
<feBlend mode="normal" in2="effect1_dropShadow_942_38" result="effect2_dropShadow_942_38"/>
<feBlend mode="normal" in="SourceGraphic" in2="effect2_dropShadow_942_38" result="shape"/>
</filter>
</defs>
</svg>
