<svg width="222" height="292" viewBox="0 0 222 292" fill="none" xmlns="http://www.w3.org/2000/svg">
<g filter="url(#filter0_dd_942_37)">
<path d="M11 17C11 11.4771 15.4772 7 21 7H201C206.523 7 211 11.4772 211 17V267C211 272.523 206.523 277 201 277H21C15.4772 277 11 272.523 11 267V17Z" fill="#F9F9F1"/>
</g>
<path d="M107 79L107 45" stroke="#4F4A36" stroke-linecap="round"/>
<path d="M134.937 48.1016H136.071L139.612 56.6055H139.708L143.235 48.1016H144.384V58H143.454V50.1113H143.372L140.091 58H139.216L135.935 50.1113H135.853V58H134.937V48.1016ZM146.366 55.9219C146.366 54.418 147.583 53.8438 149.101 53.7207C149.593 53.6865 150.796 53.6182 151.151 53.5977V52.9004C151.151 51.9023 150.509 51.3008 149.347 51.3008C148.376 51.3008 147.72 51.752 147.542 52.4219H146.571C146.722 51.2461 147.856 50.4668 149.401 50.4668C150.509 50.4668 152.081 50.9453 152.081 52.9824V58H151.151V56.8516H151.097C150.796 57.4941 150.058 58.1641 148.813 58.1641C147.46 58.1641 146.366 57.3574 146.366 55.9219ZM147.296 55.9629C147.296 56.8379 147.993 57.3301 148.95 57.3301C150.317 57.3301 151.151 56.3457 151.151 55.1699V54.377L149.237 54.5137C147.925 54.6094 147.296 55.1152 147.296 55.9629ZM154.091 58V50.5762H154.993V51.7246H155.062C155.362 50.9727 156.155 50.4668 157.071 50.4668C157.222 50.4668 157.44 50.4668 157.55 50.4805V51.4238C157.468 51.4102 157.249 51.3691 157.003 51.3691C155.868 51.3691 155.034 52.1484 155.034 53.2285V58H154.091ZM161.46 58.1504C159.437 58.1504 158.151 56.5371 158.151 54.3223C158.151 52.0801 159.478 50.4668 161.446 50.4668C162.95 50.4668 164.112 51.4102 164.304 52.791H163.374C163.196 51.9844 162.499 51.3145 161.46 51.3145C160.052 51.3145 159.081 52.5176 159.081 54.2949C159.081 56.0723 160.024 57.3164 161.46 57.3164C162.417 57.3164 163.169 56.7422 163.374 55.8262H164.317C164.112 57.166 163.019 58.1504 161.46 58.1504ZM166.819 53.3926V58H165.876V48.1016H166.819V51.752H166.888C167.243 50.9727 167.954 50.4805 169.089 50.4805C170.593 50.4805 171.618 51.4238 171.618 53.2012V58H170.688V53.2695C170.688 52.0527 169.978 51.3281 168.843 51.3281C167.667 51.3281 166.819 52.1074 166.819 53.3926ZM137.685 75V74.2891L141.034 70.666C142.306 69.2852 142.825 68.5879 142.839 67.6582C142.825 66.5645 141.937 65.8262 140.761 65.8262C139.503 65.8262 138.696 66.6465 138.696 67.8086H137.767C137.767 66.1406 139.052 64.9648 140.788 64.9648C142.511 64.9648 143.741 66.1406 143.741 67.6582C143.741 68.7656 143.235 69.5996 141.526 71.4043L139.065 74.0566V74.125H144.042V75H137.685ZM149.046 75.1367C146.927 75.1367 145.696 73.2637 145.696 70.0508C145.696 66.8516 146.94 64.9648 149.046 64.9648C151.138 64.9648 152.382 66.8516 152.382 70.0508C152.382 73.2637 151.151 75.1367 149.046 75.1367ZM149.046 74.2617C150.55 74.2617 151.438 72.7305 151.438 70.0508C151.438 67.3711 150.536 65.8262 149.046 65.8262C147.542 65.8262 146.653 67.3711 146.653 70.0508C146.653 72.7305 147.542 74.2617 149.046 74.2617ZM154.091 75V74.2891L157.44 70.666C158.712 69.2852 159.231 68.5879 159.245 67.6582C159.231 66.5645 158.343 65.8262 157.167 65.8262C155.909 65.8262 155.103 66.6465 155.103 67.8086H154.173C154.173 66.1406 155.458 64.9648 157.194 64.9648C158.917 64.9648 160.147 66.1406 160.147 67.6582C160.147 68.7656 159.642 69.5996 157.933 71.4043L155.472 74.0566V74.125H160.448V75H154.091ZM161.884 72.8945V72.1016L166.396 65.1016H167.571V72.0332H168.925V72.8945H167.571V75H166.642V72.8945H161.884ZM162.964 72.0332H166.642V66.4004H166.546L162.964 71.9648V72.0332Z" fill="#3A3A3B"/>
<path d="M54.6992 76.3906C48.1367 76.3906 44.3086 71.1172 44.3086 61.8594C44.3086 52.6797 48.2148 47.3281 54.6992 47.3281C61.1836 47.3281 65.0898 52.6797 65.0898 61.8594C65.0898 71.1172 61.2227 76.3906 54.6992 76.3906ZM54.6992 72.6797C58.5273 72.6797 60.793 68.9297 60.793 61.8594C60.793 54.8281 58.4883 50.9609 54.6992 50.9609C50.9102 50.9609 48.6055 54.8281 48.6055 61.8594C48.6055 68.9297 50.8711 72.6797 54.6992 72.6797ZM69.7383 76L82.3555 51.625V51.3906H67.7852V47.7188H86.8086V51.5469L74.2305 76H69.7383Z" fill="#3A3A3B"/>
<defs>
<filter id="filter0_dd_942_37" x="0" y="0" width="222" height="292" filterUnits="userSpaceOnUse" color-interpolation-filters="sRGB">
<feFlood flood-opacity="0" result="BackgroundImageFix"/>
<feColorMatrix in="SourceAlpha" type="matrix" values="0 0 0 0 0 0 0 0 0 0 0 0 0 0 0 0 0 0 127 0" result="hardAlpha"/>
<feOffset dy="1"/>
<feGaussianBlur stdDeviation="1.5"/>
<feColorMatrix type="matrix" values="0 0 0 0 0.45098 0 0 0 0 0.454902 0 0 0 0 0.435294 0 0 0 0.3 0"/>
<feBlend mode="normal" in2="BackgroundImageFix" result="effect1_dropShadow_942_37"/>
<feColorMatrix in="SourceAlpha" type="matrix" values="0 0 0 0 0 0 0 0 0 0 0 0 0 0 0 0 0 0 127 0" result="hardAlpha"/>
<feMorphology radius="3" operator="dilate" in="SourceAlpha" result="effect2_dropShadow_942_37"/>
<feOffset dy="4"/>
<feGaussianBlur stdDeviation="4"/>
<feColorMatrix type="matrix" values="0 0 0 0 0.45098 0 0 0 0 0.454902 0 0 0 0 0.435294 0 0 0 0.15 0"/>
<feBlend mode="normal" in2="effect1_dropShadow_942_37" result="effect2_dropShadow_942_37"/>
<feBlend mode="normal" in="SourceGraphic" in2="effect2_dropShadow_942_37" result="shape"/>
</filter>
</defs>
</svg>
