<svg width="36" height="36" viewBox="0 0 36 36" fill="none" xmlns="http://www.w3.org/2000/svg">
<path d="M0 18C0 8.05887 8.05888 0 18 0C27.9411 0 36 8.05887 36 18C36 27.9411 27.9411 36 18 36C8.05888 36 0 27.9411 0 18Z" fill="#4F4A36"/>
<rect width="24" height="24" transform="translate(6 6)" fill="#4F4A36"/>
<path d="M18 10L17.2929 9.29289L18 8.58579L18.7071 9.29289L18 10ZM19 25C19 25.5523 18.5523 26 18 26C17.4477 26 17 25.5523 17 25L19 25ZM11.2929 15.2929L17.2929 9.29289L18.7071 10.7071L12.7071 16.7071L11.2929 15.2929ZM18.7071 9.29289L24.7071 15.2929L23.2929 16.7071L17.2929 10.7071L18.7071 9.29289ZM19 10L19 25L17 25L17 10L19 10Z" fill="#F5F5E8"/>
</svg>
